{
  "source": "C:\\Users\\Peter\\Desktop\\stuff\\MIUN\\quantitative_research\\video_compression\\videos\\HEVC_CLASS_B\\Kimono_1920x1080_24.y4m",
  "output": "C:\\Users\\Peter\\Desktop\\stuff\\MIUN\\quantitative_research\\video_compression\\compressed_videos\\HEVC_CLASS_B\\hevc\\12\\Kimono_1920x1080_24_hevc.mp4",
  "codec": "hevc",
  "ok": "Input #0, yuv4mpegpipe, from 'C:\\Users\\Peter\\Desktop\\stuff\\MIUN\\quantitative_research\\video_compression\\videos\\HEVC_CLASS_B\\Kimono_1920x1080_24.y4m':\n  Duration: 00:00:10.00, start: 0.000000, bitrate: 597198 kb/s\n  Stream #0:0: Video: rawvideo (I420 / 0x30323449), yuv420p(progressive), 1920x1080, 24 fps, 24 tbr, 24 tbn\n[out#0/mp4 @ 000001ba5c329c00] Codec AVOption b:a (set bitrate (in bits/s)) has not been used for any stream. The most likely reason is either wrong type (e.g. a video option with no video streams) or that it is a private option of some decoder which was not actually used for any stream.\nStream mapping:\n  Stream #0:0 -> #0:0 (rawvideo (native) -> hevc (libx265))\nPress [q] to stop, [?] for help\n[libx265 @ 000001ba5c32cd00] Unknown option: \"aq-mode.\nx265 [info]: HEVC encoder version 4.1+190-8f11c33ac\nx265 [info]: build info [Windows][GCC 15.1.0][64 bit] 10bit\nx265 [info]: using cpu capabilities: MMX2 SSE2Fast LZCNT SSSE3 SSE4.2 AVX FMA3 BMI2 AVX2\nx265 [info]: Main 10 profile, Level-4 (Main tier)\nx265 [info]: Thread pool created using 12 threads\nx265 [info]: Slices                              : 1\nx265 [info]: frame threads / pool features       : 3 / wpp(17 rows)\nx265 [info]: Coding QT: max CU size, min CU size : 64 / 8\nx265 [info]: Residual QT: max TU size, max depth : 32 / 1 inter / 1 intra\nx265 [info]: ME / range / subpel / merge         : star / 57 / 3 / 3\nx265 [info]: Keyframe min / max / scenecut / bias  : 24 / 250 / 40 / 5.00 \nx265 [info]: Lookahead / bframes / badapt        : 25 / 4 / 2\nx265 [info]: b-pyramid / weightp / weightb       : 1 / 1 / 0\nx265 [info]: References / ref-limit  cu / depth  : 4 / on / on\nx265 [info]: AQ: mode / str / qg-size / cu-tree  : 2 / 1.0 / 32 / 1\nx265 [info]: Rate Control / qCompress            : ABR-12000 kbps / 0.60\nx265 [info]: VBV/HRD buffer / max-rate / init    : 12000 / 12000 / 0.750\nx265 [info]: tools: rect limit-modes rd=4 psy-rd=2.00 rdoq=2 psy-rdoq=1.00\nx265 [info]: tools: rskip mode=1 signhide tmvp strong-intra-smoothing lslices=4\nx265 [info]: tools: deblock sao dhdr10-info\nOutput #0, mp4, to 'C:\\Users\\Peter\\Desktop\\stuff\\MIUN\\quantitative_research\\video_compression\\compressed_videos\\HEVC_CLASS_B\\hevc\\12\\Kimono_1920x1080_24_hevc.mp4':\n  Metadata:\n    encoder         : Lavf62.3.100\n  Stream #0:0: Video: hevc (hev1 / 0x31766568), yuv420p10le(tv, progressive), 1920x1080, q=2-31, 12000 kb/s, 24 fps, 12288 tbn\n    Metadata:\n      encoder         : Lavc62.11.100 libx265\n    Side data:\n      cpb: bitrate max/min/avg: 12000000/0/12000000 buffer size: 12000000 vbv_delay: N/A\nframe=    0 fps=0.0 q=0.0 size=       0KiB time=N/A bitrate=N/A speed=N/A elapsed=0:00:03.15    \nframe=    0 fps=0.0 q=0.0 size=       0KiB time=N/A bitrate=N/A speed=N/A elapsed=0:00:04.38    \nframe=    0 fps=0.0 q=0.0 size=       0KiB time=N/A bitrate=N/A speed=N/A elapsed=0:00:05.08    \nframe=    0 fps=0.0 q=0.0 size=       0KiB time=N/A bitrate=N/A speed=N/A elapsed=0:00:05.63    \nframe=    0 fps=0.0 q=0.0 size=       0KiB time=N/A bitrate=N/A speed=N/A elapsed=0:00:06.16    \nframe=    0 fps=0.0 q=0.0 size=       0KiB time=N/A bitrate=N/A speed=N/A elapsed=0:00:06.72    \nframe=    0 fps=0.0 q=0.0 size=       0KiB time=N/A bitrate=N/A speed=N/A elapsed=0:00:07.27    \nframe=    0 fps=0.0 q=0.0 size=       0KiB time=N/A bitrate=N/A speed=N/A elapsed=0:00:07.81    \nframe=    0 fps=0.0 q=0.0 size=       0KiB time=N/A bitrate=N/A speed=N/A elapsed=0:00:08.35    \nframe=    0 fps=0.0 q=0.0 size=       0KiB time=N/A bitrate=N/A speed=N/A elapsed=0:00:08.89    \nframe=    0 fps=0.0 q=0.0 size=       0KiB time=N/A bitrate=N/A speed=N/A elapsed=0:00:09.44    \nframe=    0 fps=0.0 q=0.0 size=       0KiB time=N/A bitrate=N/A speed=N/A elapsed=0:00:10.10    \nframe=    0 fps=0.0 q=0.0 size=       0KiB time=N/A bitrate=N/A speed=N/A elapsed=0:00:10.72    \nframe=    0 fps=0.0 q=0.0 size=       0KiB time=N/A bitrate=N/A speed=N/A elapsed=0:00:11.39    \nframe=    0 fps=0.0 q=0.0 size=       0KiB time=N/A bitrate=N/A speed=N/A elapsed=0:00:12.08    \nframe=    0 fps=0.0 q=0.0 size=       0KiB time=N/A bitrate=N/A speed=N/A elapsed=0:00:12.75    \nframe=    0 fps=0.0 q=0.0 size=       0KiB time=N/A bitrate=N/A speed=N/A elapsed=0:00:13.29    \nframe=    0 fps=0.0 q=0.0 size=       0KiB time=N/A bitrate=N/A speed=N/A elapsed=0:00:13.83    \nframe=    0 fps=0.0 q=0.0 size=       0KiB time=N/A bitrate=N/A speed=N/A elapsed=0:00:14.40    \nframe=    0 fps=0.0 q=0.0 size=       0KiB time=N/A bitrate=N/A speed=N/A elapsed=0:00:15.07    \nframe=    0 fps=0.0 q=0.0 size=       0KiB time=N/A bitrate=N/A speed=N/A elapsed=0:00:15.76    \nframe=    0 fps=0.0 q=0.0 size=       0KiB time=N/A bitrate=N/A speed=N/A elapsed=0:00:16.39    \nframe=    0 fps=0.0 q=0.0 size=       0KiB time=N/A bitrate=N/A speed=N/A elapsed=0:00:17.06    \nframe=    0 fps=0.0 q=0.0 size=       0KiB time=N/A bitrate=N/A speed=N/A elapsed=0:00:17.66    \nframe=    0 fps=0.0 q=0.0 size=       0KiB time=N/A bitrate=N/A speed=N/A elapsed=0:00:18.23    \nframe=    0 fps=0.0 q=0.0 size=       0KiB time=N/A bitrate=N/A speed=N/A elapsed=0:00:18.83    \nframe=    0 fps=0.0 q=0.0 size=       0KiB time=N/A bitrate=N/A speed=N/A elapsed=0:00:19.55    \nframe=    0 fps=0.0 q=0.0 size=       0KiB time=N/A bitrate=N/A speed=N/A elapsed=0:00:20.22    \nframe=    0 fps=0.0 q=0.0 size=       0KiB time=N/A bitrate=N/A speed=N/A elapsed=0:00:20.89    \nframe=    0 fps=0.0 q=0.0 size=       0KiB time=N/A bitrate=N/A speed=N/A elapsed=0:00:21.44    \nframe=    0 fps=0.0 q=0.0 size=       0KiB time=N/A bitrate=N/A speed=N/A elapsed=0:00:22.06    \nframe=    0 fps=0.0 q=0.0 size=       0KiB time=N/A bitrate=N/A speed=N/A elapsed=0:00:22.60    \nframe=    0 fps=0.0 q=0.0 size=       0KiB time=N/A bitrate=N/A speed=N/A elapsed=0:00:23.31    \nframe=    0 fps=0.0 q=0.0 size=       0KiB time=N/A bitrate=N/A speed=N/A elapsed=0:00:23.94    \nframe=    0 fps=0.0 q=0.0 size=       0KiB time=N/A bitrate=N/A speed=N/A elapsed=0:00:24.53    \nframe=    0 fps=0.0 q=0.0 size=       0KiB time=N/A bitrate=N/A speed=N/A elapsed=0:00:25.17    \nframe=    0 fps=0.0 q=0.0 size=       0KiB time=N/A bitrate=N/A speed=N/A elapsed=0:00:25.76    \nframe=    0 fps=0.0 q=0.0 size=       0KiB time=N/A bitrate=N/A speed=N/A elapsed=0:00:26.36    \nframe=    0 fps=0.0 q=0.0 size=       0KiB time=N/A bitrate=N/A speed=N/A elapsed=0:00:26.95    \nframe=    0 fps=0.0 q=0.0 size=       0KiB time=N/A bitrate=N/A speed=N/A elapsed=0:00:27.59    \nframe=    0 fps=0.0 q=0.0 size=       0KiB time=N/A bitrate=N/A speed=N/A elapsed=0:00:28.30    \nframe=    0 fps=0.0 q=0.0 size=       0KiB time=N/A bitrate=N/A speed=N/A elapsed=0:00:28.90    \nframe=    0 fps=0.0 q=0.0 size=       0KiB time=N/A bitrate=N/A speed=N/A elapsed=0:00:29.53    \nframe=    0 fps=0.0 q=0.0 size=       0KiB time=N/A bitrate=N/A speed=N/A elapsed=0:00:30.21    \nframe=    0 fps=0.0 q=0.0 size=       0KiB time=N/A bitrate=N/A speed=N/A elapsed=0:00:30.92    \nframe=    0 fps=0.0 q=0.0 size=       0KiB time=N/A bitrate=N/A speed=N/A elapsed=0:00:31.53    \nframe=    0 fps=0.0 q=0.0 size=       0KiB time=N/A bitrate=N/A speed=N/A elapsed=0:00:32.23    \nframe=    0 fps=0.0 q=0.0 size=       0KiB time=N/A bitrate=N/A speed=N/A elapsed=0:00:32.88    \nframe=    0 fps=0.0 q=0.0 size=       0KiB time=N/A bitrate=N/A speed=N/A elapsed=0:00:33.55    \nframe=    0 fps=0.0 q=0.0 size=       0KiB time=N/A bitrate=N/A speed=N/A elapsed=0:00:34.14    \nframe=    0 fps=0.0 q=0.0 size=       0KiB time=N/A bitrate=N/A speed=N/A elapsed=0:00:34.92    \nframe=    0 fps=0.0 q=0.0 size=       0KiB time=N/A bitrate=N/A speed=N/A elapsed=0:00:35.60    \nframe=    0 fps=0.0 q=0.0 size=       0KiB time=N/A bitrate=N/A speed=N/A elapsed=0:00:36.21    \nframe=    0 fps=0.0 q=0.0 size=       0KiB time=N/A bitrate=N/A speed=N/A elapsed=0:00:36.95    \nframe=    0 fps=0.0 q=0.0 size=       0KiB time=N/A bitrate=N/A speed=N/A elapsed=0:00:37.57    \nframe=    0 fps=0.0 q=0.0 size=       0KiB time=N/A bitrate=N/A speed=N/A elapsed=0:00:38.24    \nframe=    0 fps=0.0 q=0.0 size=       0KiB time=N/A bitrate=N/A speed=N/A elapsed=0:00:38.82    \nframe=    0 fps=0.0 q=0.0 size=       0KiB time=N/A bitrate=N/A speed=N/A elapsed=0:00:39.54    \nframe=    0 fps=0.0 q=0.0 size=       0KiB time=N/A bitrate=N/A speed=N/A elapsed=0:00:40.29    \nframe=    0 fps=0.0 q=0.0 size=       0KiB time=N/A bitrate=N/A speed=N/A elapsed=0:00:40.94    \nframe=    0 fps=0.0 q=0.0 size=       0KiB time=N/A bitrate=N/A speed=N/A elapsed=0:00:41.55    \nframe=    0 fps=0.0 q=0.0 size=       0KiB time=N/A bitrate=N/A speed=N/A elapsed=0:00:42.21    \nframe=    0 fps=0.0 q=0.0 size=       0KiB time=N/A bitrate=N/A speed=N/A elapsed=0:00:42.88    \nframe=    0 fps=0.0 q=0.0 size=       0KiB time=N/A bitrate=N/A speed=N/A elapsed=0:00:43.68    \nframe=    0 fps=0.0 q=0.0 size=       0KiB time=N/A bitrate=N/A speed=N/A elapsed=0:00:44.34    \nframe=    0 fps=0.0 q=0.0 size=       0KiB time=N/A bitrate=N/A speed=N/A elapsed=0:00:45.00    \nframe=    0 fps=0.0 q=0.0 size=       0KiB time=N/A bitrate=N/A speed=N/A elapsed=0:00:45.70    \nframe=    0 fps=0.0 q=0.0 size=       0KiB time=N/A bitrate=N/A speed=N/A elapsed=0:00:46.33    \nframe=    0 fps=0.0 q=0.0 size=       0KiB time=N/A bitrate=N/A speed=N/A elapsed=0:00:46.97    \nframe=    0 fps=0.0 q=0.0 size=       0KiB time=N/A bitrate=N/A speed=N/A elapsed=0:00:47.60    \nframe=    0 fps=0.0 q=0.0 size=       0KiB time=N/A bitrate=N/A speed=N/A elapsed=0:00:48.30    \nframe=    0 fps=0.0 q=0.0 size=       0KiB time=N/A bitrate=N/A speed=N/A elapsed=0:00:48.95    \nframe=    0 fps=0.0 q=0.0 size=       0KiB time=N/A bitrate=N/A speed=N/A elapsed=0:00:49.54    \nframe=    0 fps=0.0 q=0.0 size=       0KiB time=N/A bitrate=N/A speed=N/A elapsed=0:00:50.15    \nframe=    0 fps=0.0 q=0.0 size=       0KiB time=N/A bitrate=N/A speed=N/A elapsed=0:00:50.78    \nframe=    0 fps=0.0 q=0.0 size=       0KiB time=N/A bitrate=N/A speed=N/A elapsed=0:00:51.50    \nframe=    0 fps=0.0 q=0.0 size=       0KiB time=N/A bitrate=N/A speed=N/A elapsed=0:00:52.17    \nframe=    0 fps=0.0 q=0.0 size=       0KiB time=N/A bitrate=N/A speed=N/A elapsed=0:00:52.82    \nframe=    0 fps=0.0 q=0.0 size=       0KiB time=N/A bitrate=N/A speed=N/A elapsed=0:00:53.44    \nframe=    0 fps=0.0 q=0.0 size=       0KiB time=N/A bitrate=N/A speed=N/A elapsed=0:00:54.04    \nframe=    0 fps=0.0 q=0.0 size=       0KiB time=N/A bitrate=N/A speed=N/A elapsed=0:00:54.69    \nframe=    0 fps=0.0 q=0.0 size=       0KiB time=N/A bitrate=N/A speed=N/A elapsed=0:00:55.33    \nframe=    0 fps=0.0 q=0.0 size=       0KiB time=N/A bitrate=N/A speed=N/A elapsed=0:00:55.97    \nframe=    0 fps=0.0 q=0.0 size=       0KiB time=N/A bitrate=N/A speed=N/A elapsed=0:00:56.63    \nframe=    0 fps=0.0 q=0.0 size=       0KiB time=N/A bitrate=N/A speed=N/A elapsed=0:00:57.31    \nframe=    0 fps=0.0 q=0.0 size=       0KiB time=N/A bitrate=N/A speed=N/A elapsed=0:00:58.00    \nframe=    0 fps=0.0 q=0.0 size=       0KiB time=N/A bitrate=N/A speed=N/A elapsed=0:00:58.61    \nframe=    0 fps=0.0 q=0.0 size=       0KiB time=N/A bitrate=N/A speed=N/A elapsed=0:00:59.19    \nframe=    0 fps=0.0 q=0.0 size=       0KiB time=N/A bitrate=N/A speed=N/A elapsed=0:00:59.84    \nframe=    0 fps=0.0 q=0.0 size=       0KiB time=N/A bitrate=N/A speed=N/A elapsed=0:01:00.55    \nframe=    0 fps=0.0 q=0.0 size=       0KiB time=N/A bitrate=N/A speed=N/A elapsed=0:01:01.27    \nframe=    0 fps=0.0 q=0.0 size=       0KiB time=N/A bitrate=N/A speed=N/A elapsed=0:01:01.83    \nframe=    0 fps=0.0 q=0.0 size=       0KiB time=N/A bitrate=N/A speed=N/A elapsed=0:01:02.54    \nframe=    0 fps=0.0 q=0.0 size=       0KiB time=N/A bitrate=N/A speed=N/A elapsed=0:01:03.17    \nframe=    0 fps=0.0 q=0.0 size=       0KiB time=N/A bitrate=N/A speed=N/A elapsed=0:01:03.73    \nframe=    0 fps=0.0 q=0.0 size=       0KiB time=N/A bitrate=N/A speed=N/A elapsed=0:01:04.33    \nframe=    0 fps=0.0 q=0.0 size=       0KiB time=N/A bitrate=N/A speed=N/A elapsed=0:01:04.90    \nframe=    0 fps=0.0 q=0.0 size=       0KiB time=N/A bitrate=N/A speed=N/A elapsed=0:01:05.46    \nframe=    0 fps=0.0 q=0.0 size=       0KiB time=N/A bitrate=N/A speed=N/A elapsed=0:01:06.07    \nframe=    0 fps=0.0 q=0.0 size=       0KiB time=N/A bitrate=N/A speed=N/A elapsed=0:01:06.68    \nframe=    0 fps=0.0 q=0.0 size=       0KiB time=N/A bitrate=N/A speed=N/A elapsed=0:01:07.26    \nframe=    0 fps=0.0 q=0.0 size=       0KiB time=N/A bitrate=N/A speed=N/A elapsed=0:01:07.86    \nframe=    0 fps=0.0 q=0.0 size=       0KiB time=N/A bitrate=N/A speed=N/A elapsed=0:01:08.44    \nframe=    0 fps=0.0 q=0.0 size=       0KiB time=N/A bitrate=N/A speed=N/A elapsed=0:01:09.06    \nframe=    0 fps=0.0 q=0.0 size=       0KiB time=N/A bitrate=N/A speed=N/A elapsed=0:01:09.61    \nframe=    0 fps=0.0 q=0.0 size=       0KiB time=N/A bitrate=N/A speed=N/A elapsed=0:01:10.25    \nframe=    0 fps=0.0 q=0.0 size=       0KiB time=N/A bitrate=N/A speed=N/A elapsed=0:01:10.99    \nframe=    0 fps=0.0 q=0.0 size=       0KiB time=N/A bitrate=N/A speed=N/A elapsed=0:01:11.68    \nframe=    0 fps=0.0 q=0.0 size=       0KiB time=N/A bitrate=N/A speed=N/A elapsed=0:01:12.34    \nframe=    0 fps=0.0 q=0.0 size=       0KiB time=N/A bitrate=N/A speed=N/A elapsed=0:01:13.01    \nframe=    1 fps=0.0 q=18.8 size=       0KiB time=-00:00:00.04 bitrate=N/A speed=N/A elapsed=0:01:13.55    \nframe=    1 fps=0.0 q=18.8 size=       0KiB time=-00:00:00.04 bitrate=N/A speed=N/A elapsed=0:01:14.15    \nframe=    1 fps=0.0 q=18.8 size=       0KiB time=-00:00:00.04 bitrate=N/A speed=N/A elapsed=0:01:14.81    \nframe=    1 fps=0.0 q=18.8 size=       0KiB time=-00:00:00.04 bitrate=N/A speed=N/A elapsed=0:01:15.48    \nframe=    2 fps=0.0 q=22.5 size=       0KiB time=00:00:00.00 bitrate=N/A speed=   0x elapsed=0:01:16.02    \nframe=    2 fps=0.0 q=22.5 size=       0KiB time=00:00:00.00 bitrate=N/A speed=   0x elapsed=0:01:16.61    \nframe=    2 fps=0.0 q=22.5 size=       0KiB time=00:00:00.00 bitrate=N/A speed=   0x elapsed=0:01:17.23    \nframe=    2 fps=0.0 q=22.5 size=       0KiB time=00:00:00.00 bitrate=N/A speed=   0x elapsed=0:01:17.84    \nframe=    2 fps=0.0 q=22.5 size=       0KiB time=00:00:00.00 bitrate=N/A speed=   0x elapsed=0:01:18.48    \nframe=    2 fps=0.0 q=22.5 size=       0KiB time=00:00:00.00 bitrate=N/A speed=   0x elapsed=0:01:19.10    \nframe=    2 fps=0.0 q=22.5 size=       0KiB time=00:00:00.00 bitrate=N/A speed=   0x elapsed=0:01:19.65    \nframe=    2 fps=0.0 q=22.5 size=       0KiB time=00:00:00.00 bitrate=N/A speed=   0x elapsed=0:01:20.23    \nframe=    2 fps=0.0 q=22.5 size=       0KiB time=00:00:00.00 bitrate=N/A speed=   0x elapsed=0:01:20.90    \nframe=    3 fps=0.0 q=24.9 size=     256KiB time=00:00:00.04 bitrate=50339.7kbits/s speed=0.000511x elapsed=0:01:21.51    \nframe=    3 fps=0.0 q=24.9 size=     256KiB time=00:00:00.04 bitrate=50339.7kbits/s speed=0.000507x elapsed=0:01:22.11    \nframe=    3 fps=0.0 q=24.9 size=     256KiB time=00:00:00.04 bitrate=50339.7kbits/s speed=0.000504x elapsed=0:01:22.65    \nframe=    3 fps=0.0 q=24.9 size=     256KiB time=00:00:00.04 bitrate=50339.7kbits/s speed=0.000501x elapsed=0:01:23.20    \nframe=    3 fps=0.0 q=24.9 size=     256KiB time=00:00:00.04 bitrate=50339.7kbits/s speed=0.000497x elapsed=0:01:23.76    \nframe=    3 fps=0.0 q=24.9 size=     256KiB time=00:00:00.04 bitrate=50339.7kbits/s speed=0.000493x elapsed=0:01:24.43    \nframe=    3 fps=0.0 q=24.9 size=     256KiB time=00:00:00.04 bitrate=50339.7kbits/s speed=0.00049x elapsed=0:01:25.11    \nframe=    3 fps=0.0 q=24.9 size=     256KiB time=00:00:00.04 bitrate=50339.7kbits/s speed=0.000486x elapsed=0:01:25.82    \nframe=    3 fps=0.0 q=24.9 size=     256KiB time=00:00:00.04 bitrate=50339.7kbits/s speed=0.000482x elapsed=0:01:26.44    \nframe=    3 fps=0.0 q=24.9 size=     256KiB time=00:00:00.04 bitrate=50339.7kbits/s speed=0.000479x elapsed=0:01:27.07    \nframe=    3 fps=0.0 q=24.9 size=     256KiB time=00:00:00.04 bitrate=50339.7kbits/s speed=0.000475x elapsed=0:01:27.64    \nframe=    3 fps=0.0 q=24.9 size=     256KiB time=00:00:00.04 bitrate=50339.7kbits/s speed=0.000472x elapsed=0:01:28.26    \nframe=    3 fps=0.0 q=24.9 size=     256KiB time=00:00:00.04 bitrate=50339.7kbits/s speed=0.000469x elapsed=0:01:28.87    \nframe=    3 fps=0.0 q=24.9 size=     256KiB time=00:00:00.04 bitrate=50339.7kbits/s speed=0.000465x elapsed=0:01:29.54    \nframe=    3 fps=0.0 q=24.9 size=     256KiB time=00:00:00.04 bitrate=50339.7kbits/s speed=0.000462x elapsed=0:01:30.26    \nframe=    3 fps=0.0 q=24.9 size=     256KiB time=00:00:00.04 bitrate=50339.7kbits/s speed=0.000458x elapsed=0:01:30.94    \nframe=    3 fps=0.0 q=24.9 size=     256KiB time=00:00:00.04 bitrate=50339.7kbits/s speed=0.000455x elapsed=0:01:31.63    \nframe=    3 fps=0.0 q=24.9 size=     256KiB time=00:00:00.04 bitrate=50339.7kbits/s speed=0.000452x elapsed=0:01:32.26    \nframe=    3 fps=0.0 q=24.9 size=     256KiB time=00:00:00.04 bitrate=50339.7kbits/s speed=0.000449x elapsed=0:01:32.87    \nframe=    3 fps=0.0 q=24.9 size=     256KiB time=00:00:00.04 bitrate=50339.7kbits/s speed=0.000446x elapsed=0:01:33.50    \nframe=    3 fps=0.0 q=24.9 size=     256KiB time=00:00:00.04 bitrate=50339.7kbits/s speed=0.000443x elapsed=0:01:34.15    \nframe=    3 fps=0.0 q=24.9 size=     256KiB time=00:00:00.04 bitrate=50339.7kbits/s speed=0.00044x elapsed=0:01:34.76    \nframe=    3 fps=0.0 q=24.9 size=     256KiB time=00:00:00.04 bitrate=50339.7kbits/s speed=0.000437x elapsed=0:01:35.43    \nframe=    3 fps=0.0 q=24.9 size=     256KiB time=00:00:00.04 bitrate=50339.7kbits/s speed=0.000434x elapsed=0:01:36.00    \nframe=    4 fps=0.0 q=27.2 size=     256KiB time=00:00:00.08 bitrate=25170.1kbits/s speed=0.000862x elapsed=0:01:36.66    \nframe=    4 fps=0.0 q=27.2 size=     256KiB time=00:00:00.08 bitrate=25170.1kbits/s speed=0.000857x elapsed=0:01:37.29    \nframe=    4 fps=0.0 q=27.2 size=     256KiB time=00:00:00.08 bitrate=25170.1kbits/s speed=0.000851x elapsed=0:01:37.91    \nframe=    4 fps=0.0 q=27.2 size=     256KiB time=00:00:00.08 bitrate=25170.1kbits/s speed=0.000846x elapsed=0:01:38.47    \nframe=    4 fps=0.0 q=27.2 size=     256KiB time=00:00:00.08 bitrate=25170.1kbits/s speed=0.000841x elapsed=0:01:39.11    \nframe=    4 fps=0.0 q=27.2 size=     256KiB time=00:00:00.08 bitrate=25170.1kbits/s speed=0.000836x elapsed=0:01:39.74    \nframe=    4 fps=0.0 q=27.2 size=     256KiB time=00:00:00.08 bitrate=25170.1kbits/s speed=0.00083x elapsed=0:01:40.34    \nframe=    4 fps=0.0 q=27.2 size=     256KiB time=00:00:00.08 bitrate=25170.1kbits/s speed=0.000825x elapsed=0:01:40.98    \nframe=    4 fps=0.0 q=27.2 size=     256KiB time=00:00:00.08 bitrate=25170.1kbits/s speed=0.00082x elapsed=0:01:41.56    \nframe=    4 fps=0.0 q=27.2 size=     256KiB time=00:00:00.08 bitrate=25170.1kbits/s speed=0.000816x elapsed=0:01:42.15    \nframe=    4 fps=0.0 q=27.2 size=     256KiB time=00:00:00.08 bitrate=25170.1kbits/s speed=0.000811x elapsed=0:01:42.76    \nframe=    4 fps=0.0 q=27.2 size=     256KiB time=00:00:00.08 bitrate=25170.1kbits/s speed=0.000806x elapsed=0:01:43.37    \nframe=    4 fps=0.0 q=27.2 size=     256KiB time=00:00:00.08 bitrate=25170.1kbits/s speed=0.000801x elapsed=0:01:44.03    \nframe=    4 fps=0.0 q=27.2 size=     256KiB time=00:00:00.08 bitrate=25170.1kbits/s speed=0.000796x elapsed=0:01:44.64    \nframe=    4 fps=0.0 q=27.2 size=     256KiB time=00:00:00.08 bitrate=25170.1kbits/s speed=0.000792x elapsed=0:01:45.25    \nframe=    4 fps=0.0 q=27.2 size=     256KiB time=00:00:00.08 bitrate=25170.1kbits/s speed=0.000788x elapsed=0:01:45.77    \nframe=    4 fps=0.0 q=27.2 size=     256KiB time=00:00:00.08 bitrate=25170.1kbits/s speed=0.000784x elapsed=0:01:46.33    \nframe=    4 fps=0.0 q=27.2 size=     256KiB time=00:00:00.08 bitrate=25170.1kbits/s speed=0.00078x elapsed=0:01:46.88    \nframe=    4 fps=0.0 q=27.2 size=     256KiB time=00:00:00.08 bitrate=25170.1kbits/s speed=0.000775x elapsed=0:01:47.57    \nframe=    4 fps=0.0 q=27.2 size=     256KiB time=00:00:00.08 bitrate=25170.1kbits/s speed=0.00077x elapsed=0:01:48.19    \nframe=    4 fps=0.0 q=27.2 size=     256KiB time=00:00:00.08 bitrate=25170.1kbits/s speed=0.000766x elapsed=0:01:48.84    \nframe=    4 fps=0.0 q=27.2 size=     256KiB time=00:00:00.08 bitrate=25170.1kbits/s speed=0.000762x elapsed=0:01:49.41    \nframe=    4 fps=0.0 q=27.2 size=     256KiB time=00:00:00.08 bitrate=25170.1kbits/s speed=0.000757x elapsed=0:01:50.02    \nframe=    5 fps=0.0 q=26.5 size=     256KiB time=00:00:00.12 bitrate=16780.0kbits/s speed=0.00113x elapsed=0:01:50.62    \nframe=    5 fps=0.0 q=26.5 size=     256KiB time=00:00:00.12 bitrate=16780.0kbits/s speed=0.00112x elapsed=0:01:51.25    \nframe=    5 fps=0.0 q=26.5 size=     256KiB time=00:00:00.12 bitrate=16780.0kbits/s speed=0.00112x elapsed=0:01:51.83    \nframe=    5 fps=0.0 q=26.5 size=     256KiB time=00:00:00.12 bitrate=16780.0kbits/s speed=0.00111x elapsed=0:01:52.38    \nframe=    5 fps=0.0 q=26.5 size=     256KiB time=00:00:00.12 bitrate=16780.0kbits/s speed=0.00111x elapsed=0:01:52.99    \nframe=    5 fps=0.0 q=26.5 size=     256KiB time=00:00:00.12 bitrate=16780.0kbits/s speed=0.0011x elapsed=0:01:53.64    \nframe=    5 fps=0.0 q=26.5 size=     256KiB time=00:00:00.12 bitrate=16780.0kbits/s speed=0.00109x elapsed=0:01:54.24    \nframe=    5 fps=0.0 q=26.5 size=     256KiB time=00:00:00.12 bitrate=16780.0kbits/s speed=0.00109x elapsed=0:01:54.80    \nframe=    5 fps=0.0 q=26.5 size=     256KiB time=00:00:00.12 bitrate=16780.0kbits/s speed=0.00108x elapsed=0:01:55.43    \nframe=    5 fps=0.0 q=26.5 size=     256KiB time=00:00:00.12 bitrate=16780.0kbits/s speed=0.00108x elapsed=0:01:56.08    \nframe=    5 fps=0.0 q=26.5 size=     256KiB time=00:00:00.12 bitrate=16780.0kbits/s speed=0.00107x elapsed=0:01:56.71    \nframe=    5 fps=0.0 q=26.5 size=     256KiB time=00:00:00.12 bitrate=16780.0kbits/s speed=0.00107x elapsed=0:01:57.35    \nframe=    5 fps=0.0 q=26.5 size=     256KiB time=00:00:00.12 bitrate=16780.0kbits/s speed=0.00106x elapsed=0:01:58.01    \nframe=    5 fps=0.0 q=26.5 size=     256KiB time=00:00:00.12 bitrate=16780.0kbits/s speed=0.00105x elapsed=0:01:58.62    \nframe=    5 fps=0.0 q=26.5 size=     256KiB time=00:00:00.12 bitrate=16780.0kbits/s speed=0.00105x elapsed=0:01:59.29    \nframe=    5 fps=0.0 q=26.5 size=     256KiB time=00:00:00.12 bitrate=16780.0kbits/s speed=0.00104x elapsed=0:01:59.95    \nframe=    5 fps=0.0 q=26.5 size=     256KiB time=00:00:00.12 bitrate=16780.0kbits/s speed=0.00104x elapsed=0:02:00.58    \nframe=    5 fps=0.0 q=26.5 size=     256KiB time=00:00:00.12 bitrate=16780.0kbits/s speed=0.00103x elapsed=0:02:01.22    \nframe=    5 fps=0.0 q=26.5 size=     256KiB time=00:00:00.12 bitrate=16780.0kbits/s speed=0.00103x elapsed=0:02:01.89    \nframe=    5 fps=0.0 q=26.5 size=     256KiB time=00:00:00.12 bitrate=16780.0kbits/s speed=0.00102x elapsed=0:02:02.55    \nframe=    5 fps=0.0 q=26.5 size=     256KiB time=00:00:00.12 bitrate=16780.0kbits/s speed=0.00101x elapsed=0:02:03.25    \nframe=    5 fps=0.0 q=26.5 size=     256KiB time=00:00:00.12 bitrate=16780.0kbits/s speed=0.00101x elapsed=0:02:03.80    \nframe=    5 fps=0.0 q=26.5 size=     256KiB time=00:00:00.12 bitrate=16780.0kbits/s speed=0.001x elapsed=0:02:04.40    \nframe=    5 fps=0.0 q=26.5 size=     256KiB time=00:00:00.12 bitrate=16780.0kbits/s speed=0.001x elapsed=0:02:04.98    \nframe=    5 fps=0.0 q=26.5 size=     256KiB time=00:00:00.12 bitrate=16780.0kbits/s speed=0.000995x elapsed=0:02:05.57    \nframe=    5 fps=0.0 q=26.5 size=     256KiB time=00:00:00.12 bitrate=16780.0kbits/s speed=0.000991x elapsed=0:02:06.19    \nframe=    5 fps=0.0 q=26.5 size=     256KiB time=00:00:00.12 bitrate=16780.0kbits/s speed=0.000986x elapsed=0:02:06.78    \nframe=    5 fps=0.0 q=26.5 size=     256KiB time=00:00:00.12 bitrate=16780.0kbits/s speed=0.000981x elapsed=0:02:07.37    \nframe=    5 fps=0.0 q=26.5 size=     256KiB time=00:00:00.12 bitrate=16780.0kbits/s speed=0.000977x elapsed=0:02:07.97    \nframe=    5 fps=0.0 q=26.5 size=     256KiB time=00:00:00.12 bitrate=16780.0kbits/s speed=0.000973x elapsed=0:02:08.52    \nframe=    5 fps=0.0 q=26.5 size=     256KiB time=00:00:00.12 bitrate=16780.0kbits/s speed=0.000968x elapsed=0:02:09.12    \nframe=    5 fps=0.0 q=26.5 size=     256KiB time=00:00:00.12 bitrate=16780.0kbits/s speed=0.000964x elapsed=0:02:09.70    \nframe=    5 fps=0.0 q=26.5 size=     256KiB time=00:00:00.12 bitrate=16780.0kbits/s speed=0.00096x elapsed=0:02:10.25    \nframe=    5 fps=0.0 q=26.5 size=     256KiB time=00:00:00.12 bitrate=16780.0kbits/s speed=0.000955x elapsed=0:02:10.91    \nframe=    5 fps=0.0 q=26.5 size=     256KiB time=00:00:00.12 bitrate=16780.0kbits/s speed=0.00095x elapsed=0:02:11.53    \nframe=    6 fps=0.0 q=22.1 size=     256KiB time=00:00:00.16 bitrate=12585.0kbits/s speed=0.00126x elapsed=0:02:12.15    \nframe=    6 fps=0.0 q=22.1 size=     256KiB time=00:00:00.16 bitrate=12585.0kbits/s speed=0.00126x elapsed=0:02:12.73    \nframe=    6 fps=0.0 q=22.1 size=     256KiB time=00:00:00.16 bitrate=12585.0kbits/s speed=0.00125x elapsed=0:02:13.28    \nframe=    6 fps=0.0 q=22.1 size=     256KiB time=00:00:00.16 bitrate=12585.0kbits/s speed=0.00124x elapsed=0:02:13.87    \nframe=    6 fps=0.0 q=22.1 size=     256KiB time=00:00:00.16 bitrate=12585.0kbits/s speed=0.00124x elapsed=0:02:14.45    \nframe=    6 fps=0.0 q=22.1 size=     256KiB time=00:00:00.16 bitrate=12585.0kbits/s speed=0.00123x elapsed=0:02:15.04    \nframe=    6 fps=0.0 q=22.1 size=     256KiB time=00:00:00.16 bitrate=12585.0kbits/s speed=0.00123x elapsed=0:02:15.62    \nframe=    6 fps=0.0 q=22.1 size=     256KiB time=00:00:00.16 bitrate=12585.0kbits/s speed=0.00122x elapsed=0:02:16.20    \nframe=    6 fps=0.0 q=22.1 size=     256KiB time=00:00:00.16 bitrate=12585.0kbits/s speed=0.00122x elapsed=0:02:16.76    \nframe=    6 fps=0.0 q=22.1 size=     256KiB time=00:00:00.16 bitrate=12585.0kbits/s speed=0.00121x elapsed=0:02:17.35    \nframe=    6 fps=0.0 q=22.1 size=     256KiB time=00:00:00.16 bitrate=12585.0kbits/s speed=0.00121x elapsed=0:02:17.91    \nframe=    6 fps=0.0 q=22.1 size=     256KiB time=00:00:00.16 bitrate=12585.0kbits/s speed=0.0012x elapsed=0:02:18.47    \nframe=    6 fps=0.0 q=22.1 size=     256KiB time=00:00:00.16 bitrate=12585.0kbits/s speed=0.0012x elapsed=0:02:19.10    \nframe=    6 fps=0.0 q=22.1 size=     256KiB time=00:00:00.16 bitrate=12585.0kbits/s speed=0.00119x elapsed=0:02:19.73    \nframe=    6 fps=0.0 q=22.1 size=     256KiB time=00:00:00.16 bitrate=12585.0kbits/s speed=0.00119x elapsed=0:02:20.34    \nframe=    6 fps=0.0 q=22.1 size=     256KiB time=00:00:00.16 bitrate=12585.0kbits/s speed=0.00118x elapsed=0:02:20.89    \nframe=    6 fps=0.0 q=22.1 size=     256KiB time=00:00:00.16 bitrate=12585.0kbits/s speed=0.00118x elapsed=0:02:21.48    \nframe=    7 fps=0.0 q=25.3 size=     256KiB time=00:00:00.20 bitrate=10068.0kbits/s speed=0.00147x elapsed=0:02:22.04    \nframe=    7 fps=0.0 q=25.3 size=     256KiB time=00:00:00.20 bitrate=10068.0kbits/s speed=0.00146x elapsed=0:02:22.61    \nframe=    7 fps=0.0 q=25.3 size=     256KiB time=00:00:00.20 bitrate=10068.0kbits/s speed=0.00146x elapsed=0:02:23.17    \nframe=    8 fps=0.1 q=26.9 size=     256KiB time=00:00:00.25 bitrate=8390.0kbits/s speed=0.00174x elapsed=0:02:23.74    \nframe=    8 fps=0.1 q=26.9 size=     256KiB time=00:00:00.25 bitrate=8390.0kbits/s speed=0.00173x elapsed=0:02:24.28    \nframe=    8 fps=0.1 q=26.9 size=     256KiB time=00:00:00.25 bitrate=8390.0kbits/s speed=0.00173x elapsed=0:02:24.81    \nframe=    8 fps=0.1 q=26.9 size=     256KiB time=00:00:00.25 bitrate=8390.0kbits/s speed=0.00172x elapsed=0:02:25.36    \nframe=    8 fps=0.1 q=26.9 size=     256KiB time=00:00:00.25 bitrate=8390.0kbits/s speed=0.00171x elapsed=0:02:25.93    \nframe=    8 fps=0.1 q=26.9 size=     256KiB time=00:00:00.25 bitrate=8390.0kbits/s speed=0.00171x elapsed=0:02:26.48    \nframe=    8 fps=0.1 q=26.9 size=     256KiB time=00:00:00.25 bitrate=8390.0kbits/s speed=0.0017x elapsed=0:02:27.01    \nframe=    8 fps=0.1 q=26.9 size=     256KiB time=00:00:00.25 bitrate=8390.0kbits/s speed=0.00169x elapsed=0:02:27.57    \nframe=    8 fps=0.1 q=26.9 size=     256KiB time=00:00:00.25 bitrate=8390.0kbits/s speed=0.00169x elapsed=0:02:28.09    \nframe=    8 fps=0.1 q=26.9 size=     256KiB time=00:00:00.25 bitrate=8390.0kbits/s speed=0.00168x elapsed=0:02:28.60    \nframe=    8 fps=0.1 q=26.9 size=     256KiB time=00:00:00.25 bitrate=8390.0kbits/s speed=0.00168x elapsed=0:02:29.16    \nframe=    8 fps=0.1 q=26.9 size=     256KiB time=00:00:00.25 bitrate=8390.0kbits/s speed=0.00167x elapsed=0:02:29.74    \nframe=    8 fps=0.1 q=26.9 size=     256KiB time=00:00:00.25 bitrate=8390.0kbits/s speed=0.00166x elapsed=0:02:30.28    \nframe=    9 fps=0.1 q=26.6 size=     512KiB time=00:00:00.29 bitrate=14381.7kbits/s speed=0.00193x elapsed=0:02:30.84    \nframe=    9 fps=0.1 q=26.6 size=     512KiB time=00:00:00.29 bitrate=14381.7kbits/s speed=0.00193x elapsed=0:02:31.37    \nframe=    9 fps=0.1 q=26.6 size=     512KiB time=00:00:00.29 bitrate=14381.7kbits/s speed=0.00192x elapsed=0:02:31.92    \nframe=    9 fps=0.1 q=26.6 size=     512KiB time=00:00:00.29 bitrate=14381.7kbits/s speed=0.00191x elapsed=0:02:32.48    \nframe=    9 fps=0.1 q=26.6 size=     512KiB time=00:00:00.29 bitrate=14381.7kbits/s speed=0.00191x elapsed=0:02:33.09    \nframe=    9 fps=0.1 q=26.6 size=     512KiB time=00:00:00.29 bitrate=14381.7kbits/s speed=0.0019x elapsed=0:02:33.62    \nframe=    9 fps=0.1 q=26.6 size=     512KiB time=00:00:00.29 bitrate=14381.7kbits/s speed=0.00189x elapsed=0:02:34.15    \nframe=    9 fps=0.1 q=26.6 size=     512KiB time=00:00:00.29 bitrate=14381.7kbits/s speed=0.00189x elapsed=0:02:34.67    \nframe=    9 fps=0.1 q=26.6 size=     512KiB time=00:00:00.29 bitrate=14381.7kbits/s speed=0.00188x elapsed=0:02:35.21    \nframe=    9 fps=0.1 q=26.6 size=     512KiB time=00:00:00.29 bitrate=14381.7kbits/s speed=0.00187x elapsed=0:02:35.78    \nframe=    9 fps=0.1 q=26.6 size=     512KiB time=00:00:00.29 bitrate=14381.7kbits/s speed=0.00187x elapsed=0:02:36.33    \nframe=    9 fps=0.1 q=26.6 size=     512KiB time=00:00:00.29 bitrate=14381.7kbits/s speed=0.00186x elapsed=0:02:36.84    \nframe=    9 fps=0.1 q=26.6 size=     512KiB time=00:00:00.29 bitrate=14381.7kbits/s speed=0.00185x elapsed=0:02:37.40    \nframe=    9 fps=0.1 q=26.6 size=     512KiB time=00:00:00.29 bitrate=14381.7kbits/s speed=0.00185x elapsed=0:02:37.95    \nframe=    9 fps=0.1 q=26.6 size=     512KiB time=00:00:00.29 bitrate=14381.7kbits/s speed=0.00184x elapsed=0:02:38.52    \nframe=    9 fps=0.1 q=26.6 size=     512KiB time=00:00:00.29 bitrate=14381.7kbits/s speed=0.00183x elapsed=0:02:39.10    \nframe=   10 fps=0.1 q=26.4 size=     512KiB time=00:00:00.33 bitrate=12584.0kbits/s speed=0.00209x elapsed=0:02:39.63    \nframe=   10 fps=0.1 q=26.4 size=     512KiB time=00:00:00.33 bitrate=12584.0kbits/s speed=0.00208x elapsed=0:02:40.21    \nframe=   10 fps=0.1 q=26.4 size=     512KiB time=00:00:00.33 bitrate=12584.0kbits/s speed=0.00207x elapsed=0:02:40.76    \nframe=   10 fps=0.1 q=26.4 size=     512KiB time=00:00:00.33 bitrate=12584.0kbits/s speed=0.00207x elapsed=0:02:41.32    \nframe=   10 fps=0.1 q=26.4 size=     512KiB time=00:00:00.33 bitrate=12584.0kbits/s speed=0.00206x elapsed=0:02:41.90    \nframe=   10 fps=0.1 q=26.4 size=     512KiB time=00:00:00.33 bitrate=12584.0kbits/s speed=0.00205x elapsed=0:02:42.46    \nframe=   11 fps=0.1 q=20.7 size=     512KiB time=00:00:00.37 bitrate=11185.7kbits/s speed=0.0023x elapsed=0:02:43.02    \nframe=   11 fps=0.1 q=20.7 size=     512KiB time=00:00:00.37 bitrate=11185.7kbits/s speed=0.00229x elapsed=0:02:43.66    \nframe=   11 fps=0.1 q=20.7 size=     512KiB time=00:00:00.37 bitrate=11185.7kbits/s speed=0.00228x elapsed=0:02:44.25    \nframe=   11 fps=0.1 q=20.7 size=     512KiB time=00:00:00.37 bitrate=11185.7kbits/s speed=0.00228x elapsed=0:02:44.78    \nframe=   11 fps=0.1 q=20.7 size=     512KiB time=00:00:00.37 bitrate=11185.7kbits/s speed=0.00227x elapsed=0:02:45.33    \nframe=   11 fps=0.1 q=20.7 size=     512KiB time=00:00:00.37 bitrate=11185.7kbits/s speed=0.00226x elapsed=0:02:45.87    \nframe=   11 fps=0.1 q=20.7 size=     512KiB time=00:00:00.37 bitrate=11185.7kbits/s speed=0.00225x elapsed=0:02:46.50    \nframe=   11 fps=0.1 q=20.7 size=     512KiB time=00:00:00.37 bitrate=11185.7kbits/s speed=0.00224x elapsed=0:02:47.07    \nframe=   11 fps=0.1 q=20.7 size=     512KiB time=00:00:00.37 bitrate=11185.7kbits/s speed=0.00224x elapsed=0:02:47.66    \nframe=   11 fps=0.1 q=20.7 size=     512KiB time=00:00:00.37 bitrate=11185.7kbits/s speed=0.00223x elapsed=0:02:48.26    \nframe=   11 fps=0.1 q=20.7 size=     512KiB time=00:00:00.37 bitrate=11185.7kbits/s speed=0.00222x elapsed=0:02:48.89    \nframe=   12 fps=0.1 q=23.3 size=     512KiB time=00:00:00.41 bitrate=10067.2kbits/s speed=0.00246x elapsed=0:02:49.45    \nframe=   12 fps=0.1 q=23.3 size=     512KiB time=00:00:00.41 bitrate=10067.2kbits/s speed=0.00245x elapsed=0:02:50.08    \nframe=   12 fps=0.1 q=23.3 size=     512KiB time=00:00:00.41 bitrate=10067.2kbits/s speed=0.00244x elapsed=0:02:50.63    \nframe=   12 fps=0.1 q=23.3 size=     512KiB time=00:00:00.41 bitrate=10067.2kbits/s speed=0.00243x elapsed=0:02:51.24    \nframe=   12 fps=0.1 q=23.3 size=     512KiB time=00:00:00.41 bitrate=10067.2kbits/s speed=0.00243x elapsed=0:02:51.79    \nframe=   12 fps=0.1 q=23.3 size=     512KiB time=00:00:00.41 bitrate=10067.2kbits/s speed=0.00242x elapsed=0:02:52.33    \nframe=   12 fps=0.1 q=23.3 size=     512KiB time=00:00:00.41 bitrate=10067.2kbits/s speed=0.00241x elapsed=0:02:52.88    \nframe=   12 fps=0.1 q=23.3 size=     512KiB time=00:00:00.41 bitrate=10067.2kbits/s speed=0.0024x elapsed=0:02:53.45    \nframe=   12 fps=0.1 q=23.3 size=     512KiB time=00:00:00.41 bitrate=10067.2kbits/s speed=0.00239x elapsed=0:02:54.05    \nframe=   12 fps=0.1 q=23.3 size=     512KiB time=00:00:00.41 bitrate=10067.2kbits/s speed=0.00239x elapsed=0:02:54.56    \nframe=   12 fps=0.1 q=23.3 size=     512KiB time=00:00:00.41 bitrate=10067.2kbits/s speed=0.00238x elapsed=0:02:55.11    \nframe=   12 fps=0.1 q=23.3 size=     512KiB time=00:00:00.41 bitrate=10067.2kbits/s speed=0.00237x elapsed=0:02:55.64    \nframe=   12 fps=0.1 q=23.3 size=     512KiB time=00:00:00.41 bitrate=10067.2kbits/s speed=0.00236x elapsed=0:02:56.23    \nframe=   12 fps=0.1 q=23.3 size=     512KiB time=00:00:00.41 bitrate=10067.2kbits/s speed=0.00236x elapsed=0:02:56.80    \nframe=   12 fps=0.1 q=23.3 size=     512KiB time=00:00:00.41 bitrate=10067.2kbits/s speed=0.00235x elapsed=0:02:57.36    \nframe=   12 fps=0.1 q=23.3 size=     512KiB time=00:00:00.41 bitrate=10067.2kbits/s speed=0.00234x elapsed=0:02:57.93    \nframe=   12 fps=0.1 q=23.3 size=     512KiB time=00:00:00.41 bitrate=10067.2kbits/s speed=0.00233x elapsed=0:02:58.51    \nframe=   12 fps=0.1 q=23.3 size=     512KiB time=00:00:00.41 bitrate=10067.2kbits/s speed=0.00233x elapsed=0:02:59.12    \nframe=   12 fps=0.1 q=23.3 size=     512KiB time=00:00:00.41 bitrate=10067.2kbits/s speed=0.00232x elapsed=0:02:59.68    \nframe=   13 fps=0.1 q=26.4 size=     768KiB time=00:00:00.45 bitrate=13727.6kbits/s speed=0.00254x elapsed=0:03:00.22    \nframe=   13 fps=0.1 q=26.4 size=     768KiB time=00:00:00.45 bitrate=13727.6kbits/s speed=0.00254x elapsed=0:03:00.74    \nframe=   13 fps=0.1 q=26.4 size=     768KiB time=00:00:00.45 bitrate=13727.6kbits/s speed=0.00253x elapsed=0:03:01.28    \nframe=   13 fps=0.1 q=26.4 size=     768KiB time=00:00:00.45 bitrate=13727.6kbits/s speed=0.00252x elapsed=0:03:01.82    \nframe=   13 fps=0.1 q=26.4 size=     768KiB time=00:00:00.45 bitrate=13727.6kbits/s speed=0.00251x elapsed=0:03:02.36    \nframe=   13 fps=0.1 q=26.4 size=     768KiB time=00:00:00.45 bitrate=13727.6kbits/s speed=0.00251x elapsed=0:03:02.90    \nframe=   13 fps=0.1 q=26.4 size=     768KiB time=00:00:00.45 bitrate=13727.6kbits/s speed=0.0025x elapsed=0:03:03.43    \nframe=   13 fps=0.1 q=26.4 size=     768KiB time=00:00:00.45 bitrate=13727.6kbits/s speed=0.00249x elapsed=0:03:03.96    \nframe=   14 fps=0.1 q=25.7 size=     768KiB time=00:00:00.50 bitrate=12583.6kbits/s speed=0.00271x elapsed=0:03:04.49    \nframe=   14 fps=0.1 q=25.7 size=     768KiB time=00:00:00.50 bitrate=12583.6kbits/s speed=0.0027x elapsed=0:03:05.05    \nframe=   14 fps=0.1 q=25.7 size=     768KiB time=00:00:00.50 bitrate=12583.6kbits/s speed=0.00269x elapsed=0:03:05.60    \nframe=   14 fps=0.1 q=25.7 size=     768KiB time=00:00:00.50 bitrate=12583.6kbits/s speed=0.00269x elapsed=0:03:06.16    \nframe=   15 fps=0.1 q=20.8 size=     768KiB time=00:00:00.54 bitrate=11615.6kbits/s speed=0.0029x elapsed=0:03:06.70    \nframe=   15 fps=0.1 q=20.8 size=     768KiB time=00:00:00.54 bitrate=11615.6kbits/s speed=0.00289x elapsed=0:03:07.28    \nframe=   15 fps=0.1 q=20.8 size=     768KiB time=00:00:00.54 bitrate=11615.6kbits/s speed=0.00288x elapsed=0:03:07.81    \nframe=   16 fps=0.1 q=22.6 size=     768KiB time=00:00:00.54 bitrate=11615.6kbits/s speed=0.00288x elapsed=0:03:08.32    \nframe=   16 fps=0.1 q=22.6 size=     768KiB time=00:00:00.58 bitrate=10786.0kbits/s speed=0.00309x elapsed=0:03:08.87    \nframe=   16 fps=0.1 q=22.6 size=     768KiB time=00:00:00.58 bitrate=10786.0kbits/s speed=0.00308x elapsed=0:03:09.39    \nframe=   16 fps=0.1 q=22.6 size=     768KiB time=00:00:00.58 bitrate=10786.0kbits/s speed=0.00307x elapsed=0:03:09.92    \nframe=   16 fps=0.1 q=22.6 size=     768KiB time=00:00:00.58 bitrate=10786.0kbits/s speed=0.00306x elapsed=0:03:10.44    \nframe=   16 fps=0.1 q=22.6 size=     768KiB time=00:00:00.58 bitrate=10786.0kbits/s speed=0.00305x elapsed=0:03:10.96    \nframe=   16 fps=0.1 q=22.6 size=     768KiB time=00:00:00.58 bitrate=10786.0kbits/s speed=0.00305x elapsed=0:03:11.50    \nframe=   16 fps=0.1 q=22.6 size=     768KiB time=00:00:00.58 bitrate=10786.0kbits/s speed=0.00304x elapsed=0:03:12.04    \nframe=   16 fps=0.1 q=22.6 size=     768KiB time=00:00:00.58 bitrate=10786.0kbits/s speed=0.00303x elapsed=0:03:12.59    \nframe=   17 fps=0.1 q=25.2 size=     768KiB time=00:00:00.62 bitrate=10066.9kbits/s speed=0.00324x elapsed=0:03:13.11    \nframe=   17 fps=0.1 q=25.2 size=     768KiB time=00:00:00.62 bitrate=10066.9kbits/s speed=0.00323x elapsed=0:03:13.64    \nframe=   18 fps=0.1 q=25.4 size=    1024KiB time=00:00:00.66 bitrate=12583.4kbits/s speed=0.00343x elapsed=0:03:14.15    \nframe=   18 fps=0.1 q=25.4 size=    1024KiB time=00:00:00.66 bitrate=12583.4kbits/s speed=0.00342x elapsed=0:03:14.66    \nframe=   19 fps=0.1 q=20.9 size=    1024KiB time=00:00:00.70 bitrate=11843.2kbits/s speed=0.00363x elapsed=0:03:15.19    \nframe=   19 fps=0.1 q=20.9 size=    1024KiB time=00:00:00.70 bitrate=11843.2kbits/s speed=0.00362x elapsed=0:03:15.70    \nframe=   19 fps=0.1 q=20.9 size=    1024KiB time=00:00:00.70 bitrate=11843.2kbits/s speed=0.00361x elapsed=0:03:16.22    \nframe=   20 fps=0.1 q=21.2 size=    1024KiB time=00:00:00.75 bitrate=11185.3kbits/s speed=0.00381x elapsed=0:03:16.74    \nframe=   20 fps=0.1 q=21.2 size=    1024KiB time=00:00:00.75 bitrate=11185.3kbits/s speed=0.0038x elapsed=0:03:17.24    \nframe=   21 fps=0.1 q=25.7 size=    1280KiB time=00:00:00.79 bitrate=13245.6kbits/s speed=0.004x elapsed=0:03:17.76    \nframe=   21 fps=0.1 q=25.7 size=    1280KiB time=00:00:00.79 bitrate=13245.6kbits/s speed=0.00399x elapsed=0:03:18.28    \nframe=   21 fps=0.1 q=25.7 size=    1280KiB time=00:00:00.79 bitrate=13245.6kbits/s speed=0.00398x elapsed=0:03:18.80    \nframe=   21 fps=0.1 q=25.7 size=    1280KiB time=00:00:00.79 bitrate=13245.6kbits/s speed=0.00397x elapsed=0:03:19.31    \nframe=   22 fps=0.1 q=25.5 size=    1280KiB time=00:00:00.83 bitrate=12583.3kbits/s speed=0.00417x elapsed=0:03:19.82    \nframe=   22 fps=0.1 q=25.5 size=    1280KiB time=00:00:00.83 bitrate=12583.3kbits/s speed=0.00416x elapsed=0:03:20.34    \nframe=   23 fps=0.1 q=25.3 size=    1280KiB time=00:00:00.87 bitrate=11984.1kbits/s speed=0.00436x elapsed=0:03:20.86    \nframe=   23 fps=0.1 q=25.3 size=    1280KiB time=00:00:00.87 bitrate=11984.1kbits/s speed=0.00435x elapsed=0:03:21.37    \nframe=   24 fps=0.1 q=20.8 size=    1280KiB time=00:00:00.91 bitrate=11439.4kbits/s speed=0.00454x elapsed=0:03:21.89    \nframe=   24 fps=0.1 q=20.8 size=    1280KiB time=00:00:00.91 bitrate=11439.4kbits/s speed=0.00453x elapsed=0:03:22.42    \nframe=   25 fps=0.1 q=21.4 size=    1280KiB time=00:00:00.95 bitrate=10942.0kbits/s speed=0.00472x elapsed=0:03:22.93    \nframe=   25 fps=0.1 q=21.4 size=    1280KiB time=00:00:00.95 bitrate=10942.0kbits/s speed=0.00471x elapsed=0:03:23.44    \nframe=   26 fps=0.1 q=25.7 size=    1536KiB time=00:00:01.00 bitrate=12583.3kbits/s speed=0.0049x elapsed=0:03:23.96    \nframe=   26 fps=0.1 q=25.7 size=    1536KiB time=00:00:01.00 bitrate=12583.3kbits/s speed=0.00489x elapsed=0:03:24.48    \nframe=   26 fps=0.1 q=25.7 size=    1536KiB time=00:00:01.00 bitrate=12583.3kbits/s speed=0.00488x elapsed=0:03:24.99    \nframe=   26 fps=0.1 q=25.7 size=    1536KiB time=00:00:01.00 bitrate=12583.3kbits/s speed=0.00487x elapsed=0:03:25.51    \nframe=   27 fps=0.1 q=25.4 size=    1536KiB time=00:00:01.04 bitrate=12079.9kbits/s speed=0.00506x elapsed=0:03:26.03    \nframe=   27 fps=0.1 q=25.4 size=    1536KiB time=00:00:01.04 bitrate=12079.9kbits/s speed=0.00504x elapsed=0:03:26.54    \nframe=   28 fps=0.1 q=25.5 size=    1536KiB time=00:00:01.08 bitrate=11615.3kbits/s speed=0.00523x elapsed=0:03:27.06    \nframe=   28 fps=0.1 q=25.5 size=    1536KiB time=00:00:01.08 bitrate=11615.3kbits/s speed=0.00522x elapsed=0:03:27.59    \nframe=   29 fps=0.1 q=20.5 size=    1536KiB time=00:00:01.12 bitrate=11185.1kbits/s speed=0.00541x elapsed=0:03:28.10    \nframe=   29 fps=0.1 q=20.5 size=    1536KiB time=00:00:01.12 bitrate=11185.1kbits/s speed=0.00539x elapsed=0:03:28.63    \nframe=   30 fps=0.1 q=22.9 size=    1536KiB time=00:00:01.16 bitrate=10785.7kbits/s speed=0.00558x elapsed=0:03:29.13    \nframe=   30 fps=0.1 q=22.9 size=    1536KiB time=00:00:01.16 bitrate=10785.7kbits/s speed=0.00556x elapsed=0:03:29.65    \nframe=   30 fps=0.1 q=22.9 size=    1536KiB time=00:00:01.16 bitrate=10785.7kbits/s speed=0.00555x elapsed=0:03:30.17    \nframe=   30 fps=0.1 q=22.9 size=    1536KiB time=00:00:01.16 bitrate=10785.7kbits/s speed=0.00554x elapsed=0:03:30.71    \nframe=   31 fps=0.1 q=25.9 size=    1792KiB time=00:00:01.20 bitrate=12149.3kbits/s speed=0.00572x elapsed=0:03:31.22    \nframe=   31 fps=0.1 q=25.9 size=    1792KiB time=00:00:01.20 bitrate=12149.3kbits/s speed=0.00571x elapsed=0:03:31.72    \nframe=   31 fps=0.1 q=25.9 size=    1792KiB time=00:00:01.20 bitrate=12149.3kbits/s speed=0.00569x elapsed=0:03:32.25    \nframe=   32 fps=0.2 q=25.8 size=    1792KiB time=00:00:01.25 bitrate=11744.3kbits/s speed=0.00587x elapsed=0:03:32.78    \nframe=   33 fps=0.2 q=20.7 size=    1792KiB time=00:00:01.29 bitrate=11365.5kbits/s speed=0.00606x elapsed=0:03:33.30    \nframe=   33 fps=0.2 q=20.7 size=    1792KiB time=00:00:01.29 bitrate=11365.5kbits/s speed=0.00604x elapsed=0:03:33.81    \nframe=   34 fps=0.2 q=22.7 size=    1792KiB time=00:00:01.33 bitrate=11010.3kbits/s speed=0.00622x elapsed=0:03:34.32    \nframe=   34 fps=0.2 q=22.7 size=    1792KiB time=00:00:01.33 bitrate=11010.3kbits/s speed=0.00621x elapsed=0:03:34.83    \nframe=   34 fps=0.2 q=22.7 size=    1792KiB time=00:00:01.33 bitrate=11010.3kbits/s speed=0.00619x elapsed=0:03:35.36    \nframe=   35 fps=0.2 q=25.6 size=    2048KiB time=00:00:01.37 bitrate=12201.9kbits/s speed=0.00637x elapsed=0:03:35.88    \nframe=   35 fps=0.2 q=25.6 size=    2048KiB time=00:00:01.37 bitrate=12201.9kbits/s speed=0.00635x elapsed=0:03:36.40    \nframe=   36 fps=0.2 q=25.6 size=    2048KiB time=00:00:01.41 bitrate=11843.0kbits/s speed=0.00653x elapsed=0:03:36.92    \nframe=   36 fps=0.2 q=25.6 size=    2048KiB time=00:00:01.41 bitrate=11843.0kbits/s speed=0.00652x elapsed=0:03:37.43    \nframe=   37 fps=0.2 q=20.7 size=    2048KiB time=00:00:01.45 bitrate=11504.6kbits/s speed=0.00669x elapsed=0:03:37.95    \nframe=   37 fps=0.2 q=20.7 size=    2048KiB time=00:00:01.45 bitrate=11504.6kbits/s speed=0.00667x elapsed=0:03:38.48    \nframe=   38 fps=0.2 q=22.8 size=    2048KiB time=00:00:01.50 bitrate=11185.0kbits/s speed=0.00685x elapsed=0:03:38.99    \nframe=   38 fps=0.2 q=22.8 size=    2048KiB time=00:00:01.50 bitrate=11185.0kbits/s speed=0.00683x elapsed=0:03:39.51    \nframe=   38 fps=0.2 q=22.8 size=    2048KiB time=00:00:01.50 bitrate=11185.0kbits/s speed=0.00682x elapsed=0:03:40.04    \nframe=   39 fps=0.2 q=25.7 size=    2304KiB time=00:00:01.54 bitrate=12243.1kbits/s speed=0.00699x elapsed=0:03:40.56    \nframe=   39 fps=0.2 q=25.7 size=    2304KiB time=00:00:01.54 bitrate=12243.1kbits/s speed=0.00697x elapsed=0:03:41.08    \nframe=   39 fps=0.2 q=25.7 size=    2304KiB time=00:00:01.54 bitrate=12243.1kbits/s speed=0.00696x elapsed=0:03:41.58    \nframe=   40 fps=0.2 q=25.6 size=    2304KiB time=00:00:01.58 bitrate=11920.9kbits/s speed=0.00713x elapsed=0:03:42.11    \nframe=   41 fps=0.2 q=20.8 size=    2304KiB time=00:00:01.62 bitrate=11615.2kbits/s speed=0.0073x elapsed=0:03:42.62    \nframe=   41 fps=0.2 q=20.8 size=    2304KiB time=00:00:01.62 bitrate=11615.2kbits/s speed=0.00728x elapsed=0:03:43.14    \nframe=   41 fps=0.2 q=20.8 size=    2304KiB time=00:00:01.62 bitrate=11615.2kbits/s speed=0.00727x elapsed=0:03:43.65    \nframe=   42 fps=0.2 q=22.3 size=    2304KiB time=00:00:01.66 bitrate=11324.8kbits/s speed=0.00743x elapsed=0:03:44.16    \nframe=   42 fps=0.2 q=22.3 size=    2304KiB time=00:00:01.66 bitrate=11324.8kbits/s speed=0.00742x elapsed=0:03:44.69    \nframe=   42 fps=0.2 q=22.3 size=    2304KiB time=00:00:01.66 bitrate=11324.8kbits/s speed=0.0074x elapsed=0:03:45.20    \nframe=   43 fps=0.2 q=25.7 size=    2304KiB time=00:00:01.70 bitrate=11048.6kbits/s speed=0.00757x elapsed=0:03:45.71    \nframe=   43 fps=0.2 q=25.7 size=    2304KiB time=00:00:01.70 bitrate=11048.6kbits/s speed=0.00755x elapsed=0:03:46.23    \nframe=   44 fps=0.2 q=25.5 size=    2560KiB time=00:00:01.75 bitrate=11983.9kbits/s speed=0.00772x elapsed=0:03:46.74    \nframe=   44 fps=0.2 q=25.5 size=    2560KiB time=00:00:01.75 bitrate=11983.9kbits/s speed=0.0077x elapsed=0:03:47.27    \nframe=   44 fps=0.2 q=25.5 size=    2560KiB time=00:00:01.75 bitrate=11983.9kbits/s speed=0.00768x elapsed=0:03:47.77    \nframe=   45 fps=0.2 q=20.6 size=    2560KiB time=00:00:01.79 bitrate=11705.2kbits/s speed=0.00785x elapsed=0:03:48.29    \nframe=   45 fps=0.2 q=20.6 size=    2560KiB time=00:00:01.79 bitrate=11705.2kbits/s speed=0.00783x elapsed=0:03:48.81    \nframe=   46 fps=0.2 q=22.7 size=    2560KiB time=00:00:01.83 bitrate=11439.2kbits/s speed=0.00799x elapsed=0:03:49.34    \nframe=   46 fps=0.2 q=22.7 size=    2560KiB time=00:00:01.83 bitrate=11439.2kbits/s speed=0.00798x elapsed=0:03:49.85    \nframe=   46 fps=0.2 q=22.7 size=    2560KiB time=00:00:01.83 bitrate=11439.2kbits/s speed=0.00796x elapsed=0:03:50.36    \nframe=   47 fps=0.2 q=25.4 size=    2560KiB time=00:00:01.87 bitrate=11185.0kbits/s speed=0.00812x elapsed=0:03:50.88    \nframe=   47 fps=0.2 q=25.4 size=    2560KiB time=00:00:01.87 bitrate=11185.0kbits/s speed=0.0081x elapsed=0:03:51.40    \nframe=   48 fps=0.2 q=25.4 size=    2560KiB time=00:00:01.91 bitrate=10941.8kbits/s speed=0.00826x elapsed=0:03:51.92    \nframe=   49 fps=0.2 q=20.5 size=    2816KiB time=00:00:01.95 bitrate=11779.9kbits/s speed=0.00843x elapsed=0:03:52.43    \nframe=   50 fps=0.2 q=22.6 size=    2816KiB time=00:00:02.00 bitrate=11534.5kbits/s speed=0.00859x elapsed=0:03:52.95    \nframe=   50 fps=0.2 q=22.6 size=    2816KiB time=00:00:02.00 bitrate=11534.5kbits/s speed=0.00857x elapsed=0:03:53.47    \nframe=   50 fps=0.2 q=22.6 size=    2816KiB time=00:00:02.00 bitrate=11534.5kbits/s speed=0.00855x elapsed=0:03:53.99    \nframe=   51 fps=0.2 q=25.6 size=    2816KiB time=00:00:02.04 bitrate=11299.1kbits/s speed=0.00871x elapsed=0:03:54.52    \nframe=   51 fps=0.2 q=25.6 size=    2816KiB time=00:00:02.04 bitrate=11299.1kbits/s speed=0.00869x elapsed=0:03:55.05    \nframe=   52 fps=0.2 q=25.5 size=    2816KiB time=00:00:02.08 bitrate=11073.1kbits/s speed=0.00884x elapsed=0:03:55.58    \nframe=   52 fps=0.2 q=25.5 size=    2816KiB time=00:00:02.08 bitrate=11073.1kbits/s speed=0.00882x elapsed=0:03:56.13    \nframe=   54 fps=0.2 q=22.6 size=    3072KiB time=00:00:02.16 bitrate=11615.2kbits/s speed=0.00916x elapsed=0:03:56.66    \nframe=   54 fps=0.2 q=22.6 size=    3072KiB time=00:00:02.16 bitrate=11615.2kbits/s speed=0.00913x elapsed=0:03:57.18    \nframe=   54 fps=0.2 q=22.6 size=    3072KiB time=00:00:02.16 bitrate=11615.2kbits/s speed=0.00911x elapsed=0:03:57.70    \nframe=   55 fps=0.2 q=25.5 size=    3072KiB time=00:00:02.20 bitrate=11396.0kbits/s speed=0.00927x elapsed=0:03:58.21    \nframe=   55 fps=0.2 q=25.5 size=    3072KiB time=00:00:02.20 bitrate=11396.0kbits/s speed=0.00925x elapsed=0:03:58.73    \nframe=   56 fps=0.2 q=25.5 size=    3072KiB time=00:00:02.25 bitrate=11185.0kbits/s speed=0.0094x elapsed=0:03:59.24    \nframe=   56 fps=0.2 q=25.5 size=    3072KiB time=00:00:02.25 bitrate=11185.0kbits/s speed=0.00938x elapsed=0:03:59.76    \nframe=   57 fps=0.2 q=20.7 size=    3328KiB time=00:00:02.29 bitrate=11896.7kbits/s speed=0.00954x elapsed=0:04:00.28    \nframe=   58 fps=0.2 q=22.7 size=    3328KiB time=00:00:02.33 bitrate=11684.3kbits/s speed=0.00969x elapsed=0:04:00.79    \nframe=   58 fps=0.2 q=22.7 size=    3328KiB time=00:00:02.33 bitrate=11684.3kbits/s speed=0.00967x elapsed=0:04:01.30    \nframe=   58 fps=0.2 q=22.7 size=    3328KiB time=00:00:02.33 bitrate=11684.3kbits/s speed=0.00965x elapsed=0:04:01.82    \nframe=   59 fps=0.2 q=25.4 size=    3328KiB time=00:00:02.37 bitrate=11479.3kbits/s speed=0.0098x elapsed=0:04:02.34    \nframe=   59 fps=0.2 q=25.4 size=    3328KiB time=00:00:02.37 bitrate=11479.3kbits/s speed=0.00978x elapsed=0:04:02.85    \nframe=   60 fps=0.2 q=25.3 size=    3328KiB time=00:00:02.41 bitrate=11281.4kbits/s speed=0.00993x elapsed=0:04:03.37    \nframe=   60 fps=0.2 q=25.3 size=    3328KiB time=00:00:02.41 bitrate=11281.4kbits/s speed=0.00991x elapsed=0:04:03.88    \nframe=   61 fps=0.2 q=20.4 size=    3328KiB time=00:00:02.45 bitrate=11090.2kbits/s speed=0.0101x elapsed=0:04:04.40    \nframe=   62 fps=0.3 q=22.6 size=    3584KiB time=00:00:02.50 bitrate=11744.2kbits/s speed=0.0102x elapsed=0:04:04.92    \nframe=   62 fps=0.3 q=22.6 size=    3584KiB time=00:00:02.50 bitrate=11744.2kbits/s speed=0.0102x elapsed=0:04:05.44    \nframe=   62 fps=0.3 q=22.6 size=    3584KiB time=00:00:02.50 bitrate=11744.2kbits/s speed=0.0102x elapsed=0:04:05.95    \nframe=   63 fps=0.3 q=25.3 size=    3584KiB time=00:00:02.54 bitrate=11551.7kbits/s speed=0.0103x elapsed=0:04:06.47    \nframe=   63 fps=0.3 q=25.3 size=    3584KiB time=00:00:02.54 bitrate=11551.7kbits/s speed=0.0103x elapsed=0:04:06.99    \nframe=   64 fps=0.3 q=25.5 size=    3584KiB time=00:00:02.58 bitrate=11365.3kbits/s speed=0.0104x elapsed=0:04:07.49    \nframe=   64 fps=0.3 q=25.5 size=    3584KiB time=00:00:02.58 bitrate=11365.3kbits/s speed=0.0104x elapsed=0:04:08.01    \nframe=   65 fps=0.3 q=20.4 size=    3584KiB time=00:00:02.62 bitrate=11184.9kbits/s speed=0.0106x elapsed=0:04:08.52    \nframe=   66 fps=0.3 q=22.6 size=    3840KiB time=00:00:02.66 bitrate=11796.6kbits/s speed=0.0107x elapsed=0:04:09.04    \nframe=   66 fps=0.3 q=22.6 size=    3840KiB time=00:00:02.66 bitrate=11796.6kbits/s speed=0.0107x elapsed=0:04:09.56    \nframe=   67 fps=0.3 q=25.4 size=    3840KiB time=00:00:02.70 bitrate=11615.1kbits/s speed=0.0108x elapsed=0:04:10.07    \nframe=   67 fps=0.3 q=25.4 size=    3840KiB time=00:00:02.70 bitrate=11615.1kbits/s speed=0.0108x elapsed=0:04:10.59    \nframe=   68 fps=0.3 q=25.3 size=    3840KiB time=00:00:02.75 bitrate=11439.1kbits/s speed=0.011x elapsed=0:04:11.10    \nframe=   68 fps=0.3 q=25.3 size=    3840KiB time=00:00:02.75 bitrate=11439.1kbits/s speed=0.0109x elapsed=0:04:11.61    \nframe=   69 fps=0.3 q=20.5 size=    3840KiB time=00:00:02.79 bitrate=11268.4kbits/s speed=0.0111x elapsed=0:04:12.15    \nframe=   70 fps=0.3 q=22.8 size=    4096KiB time=00:00:02.83 bitrate=11842.9kbits/s speed=0.0112x elapsed=0:04:12.67    \nframe=   70 fps=0.3 q=22.8 size=    4096KiB time=00:00:02.83 bitrate=11842.9kbits/s speed=0.0112x elapsed=0:04:13.19    \nframe=   70 fps=0.3 q=22.8 size=    4096KiB time=00:00:02.83 bitrate=11842.9kbits/s speed=0.0112x elapsed=0:04:13.70    \nframe=   71 fps=0.3 q=25.4 size=    4096KiB time=00:00:02.87 bitrate=11671.2kbits/s speed=0.0113x elapsed=0:04:14.22    \nframe=   71 fps=0.3 q=25.4 size=    4096KiB time=00:00:02.87 bitrate=11671.2kbits/s speed=0.0113x elapsed=0:04:14.72    \nframe=   72 fps=0.3 q=25.4 size=    4096KiB time=00:00:02.91 bitrate=11504.5kbits/s speed=0.0114x elapsed=0:04:15.24    \nframe=   72 fps=0.3 q=25.4 size=    4096KiB time=00:00:02.91 bitrate=11504.5kbits/s speed=0.0114x elapsed=0:04:15.77    \nframe=   72 fps=0.3 q=25.4 size=    4096KiB time=00:00:02.91 bitrate=11504.5kbits/s speed=0.0114x elapsed=0:04:16.29    \nframe=   73 fps=0.3 q=20.5 size=    4096KiB time=00:00:02.95 bitrate=11342.5kbits/s speed=0.0115x elapsed=0:04:16.81    \nframe=   73 fps=0.3 q=20.5 size=    4096KiB time=00:00:02.95 bitrate=11342.5kbits/s speed=0.0115x elapsed=0:04:17.32    \nframe=   74 fps=0.3 q=22.7 size=    4352KiB time=00:00:03.00 bitrate=11884.0kbits/s speed=0.0116x elapsed=0:04:17.85    \nframe=   74 fps=0.3 q=22.7 size=    4352KiB time=00:00:03.00 bitrate=11884.0kbits/s speed=0.0116x elapsed=0:04:18.36    \nframe=   74 fps=0.3 q=22.7 size=    4352KiB time=00:00:03.00 bitrate=11884.0kbits/s speed=0.0116x elapsed=0:04:18.88    \nframe=   75 fps=0.3 q=25.3 size=    4352KiB time=00:00:03.04 bitrate=11721.2kbits/s speed=0.0117x elapsed=0:04:19.39    \nframe=   75 fps=0.3 q=25.3 size=    4352KiB time=00:00:03.04 bitrate=11721.2kbits/s speed=0.0117x elapsed=0:04:19.91    \nframe=   75 fps=0.3 q=25.3 size=    4352KiB time=00:00:03.04 bitrate=11721.2kbits/s speed=0.0117x elapsed=0:04:20.41    \nframe=   76 fps=0.3 q=25.2 size=    4352KiB time=00:00:03.08 bitrate=11562.8kbits/s speed=0.0118x elapsed=0:04:20.94    \nframe=   77 fps=0.3 q=20.5 size=    4352KiB time=00:00:03.12 bitrate=11408.6kbits/s speed=0.012x elapsed=0:04:21.46    \nframe=   78 fps=0.3 q=22.6 size=    4608KiB time=00:00:03.16 bitrate=11920.8kbits/s speed=0.0121x elapsed=0:04:21.98    \nframe=   78 fps=0.3 q=22.6 size=    4608KiB time=00:00:03.16 bitrate=11920.8kbits/s speed=0.0121x elapsed=0:04:22.50    \nframe=   78 fps=0.3 q=22.6 size=    4608KiB time=00:00:03.16 bitrate=11920.8kbits/s speed=0.012x elapsed=0:04:23.01    \nframe=   79 fps=0.3 q=25.2 size=    4608KiB time=00:00:03.20 bitrate=11766.0kbits/s speed=0.0122x elapsed=0:04:23.54    \nframe=   79 fps=0.3 q=25.2 size=    4608KiB time=00:00:03.20 bitrate=11766.0kbits/s speed=0.0121x elapsed=0:04:24.06    \nframe=   79 fps=0.3 q=25.2 size=    4608KiB time=00:00:03.20 bitrate=11766.0kbits/s speed=0.0121x elapsed=0:04:24.58    \nframe=   79 fps=0.3 q=25.2 size=    4608KiB time=00:00:03.20 bitrate=11766.0kbits/s speed=0.0121x elapsed=0:04:25.09    \nframe=   80 fps=0.3 q=25.1 size=    4608KiB time=00:00:03.25 bitrate=11615.1kbits/s speed=0.0122x elapsed=0:04:25.60    \nframe=   80 fps=0.3 q=25.1 size=    4608KiB time=00:00:03.25 bitrate=11615.1kbits/s speed=0.0122x elapsed=0:04:26.11    \nframe=   80 fps=0.3 q=25.1 size=    4608KiB time=00:00:03.25 bitrate=11615.1kbits/s speed=0.0122x elapsed=0:04:26.64    \nframe=   81 fps=0.3 q=20.2 size=    4608KiB time=00:00:03.29 bitrate=11468.1kbits/s speed=0.0123x elapsed=0:04:27.16    \nframe=   82 fps=0.3 q=22.7 size=    4864KiB time=00:00:03.33 bitrate=11953.9kbits/s speed=0.0125x elapsed=0:04:27.67    \nframe=   82 fps=0.3 q=22.7 size=    4864KiB time=00:00:03.33 bitrate=11953.9kbits/s speed=0.0124x elapsed=0:04:28.19    \nframe=   82 fps=0.3 q=22.7 size=    4864KiB time=00:00:03.33 bitrate=11953.9kbits/s speed=0.0124x elapsed=0:04:28.72    \nframe=   82 fps=0.3 q=22.7 size=    4864KiB time=00:00:03.33 bitrate=11953.9kbits/s speed=0.0124x elapsed=0:04:29.23    \nframe=   83 fps=0.3 q=25.4 size=    4864KiB time=00:00:03.37 bitrate=11806.3kbits/s speed=0.0125x elapsed=0:04:29.74    \nframe=   83 fps=0.3 q=25.4 size=    4864KiB time=00:00:03.37 bitrate=11806.3kbits/s speed=0.0125x elapsed=0:04:30.28    \nframe=   84 fps=0.3 q=25.4 size=    4864KiB time=00:00:03.41 bitrate=11662.3kbits/s speed=0.0126x elapsed=0:04:30.79    \nframe=   84 fps=0.3 q=25.4 size=    4864KiB time=00:00:03.41 bitrate=11662.3kbits/s speed=0.0126x elapsed=0:04:31.31    \nframe=   84 fps=0.3 q=25.4 size=    4864KiB time=00:00:03.41 bitrate=11662.3kbits/s speed=0.0126x elapsed=0:04:31.82    \nframe=   85 fps=0.3 q=20.3 size=    4864KiB time=00:00:03.45 bitrate=11521.8kbits/s speed=0.0127x elapsed=0:04:32.34    \nframe=   86 fps=0.3 q=23.4 size=    5120KiB time=00:00:03.50 bitrate=11983.8kbits/s speed=0.0128x elapsed=0:04:32.86    \nframe=   86 fps=0.3 q=23.4 size=    5120KiB time=00:00:03.50 bitrate=11983.8kbits/s speed=0.0128x elapsed=0:04:33.37    \nframe=   87 fps=0.3 q=25.2 size=    5120KiB time=00:00:03.54 bitrate=11842.8kbits/s speed=0.0129x elapsed=0:04:33.89    \nframe=   87 fps=0.3 q=25.2 size=    5120KiB time=00:00:03.54 bitrate=11842.8kbits/s speed=0.0129x elapsed=0:04:34.40    \nframe=   87 fps=0.3 q=25.2 size=    5120KiB time=00:00:03.54 bitrate=11842.8kbits/s speed=0.0129x elapsed=0:04:34.91    \nframe=   88 fps=0.3 q=25.0 size=    5120KiB time=00:00:03.58 bitrate=11705.1kbits/s speed=0.013x elapsed=0:04:35.44    \nframe=   88 fps=0.3 q=25.0 size=    5120KiB time=00:00:03.58 bitrate=11705.1kbits/s speed=0.013x elapsed=0:04:35.95    \nframe=   88 fps=0.3 q=25.0 size=    5120KiB time=00:00:03.58 bitrate=11705.1kbits/s speed=0.013x elapsed=0:04:36.47    \nframe=   89 fps=0.3 q=25.0 size=    5120KiB time=00:00:03.62 bitrate=11570.6kbits/s speed=0.0131x elapsed=0:04:36.98    \nframe=   89 fps=0.3 q=25.0 size=    5120KiB time=00:00:03.62 bitrate=11570.6kbits/s speed=0.0131x elapsed=0:04:37.49    \nframe=   90 fps=0.3 q=20.0 size=    5120KiB time=00:00:03.66 bitrate=11439.1kbits/s speed=0.0132x elapsed=0:04:38.01    \nframe=   90 fps=0.3 q=20.0 size=    5120KiB time=00:00:03.66 bitrate=11439.1kbits/s speed=0.0132x elapsed=0:04:38.52    \nframe=   91 fps=0.3 q=20.7 size=    5376KiB time=00:00:03.70 bitrate=11876.1kbits/s speed=0.0133x elapsed=0:04:39.04    \nframe=   91 fps=0.3 q=20.7 size=    5376KiB time=00:00:03.70 bitrate=11876.1kbits/s speed=0.0133x elapsed=0:04:39.56    \nframe=   92 fps=0.3 q=25.3 size=    5376KiB time=00:00:03.75 bitrate=11744.1kbits/s speed=0.0134x elapsed=0:04:40.07    \nframe=   92 fps=0.3 q=25.3 size=    5376KiB time=00:00:03.75 bitrate=11744.1kbits/s speed=0.0134x elapsed=0:04:40.59    \nframe=   92 fps=0.3 q=25.3 size=    5376KiB time=00:00:03.75 bitrate=11744.1kbits/s speed=0.0133x elapsed=0:04:41.10    \nframe=   93 fps=0.3 q=25.2 size=    5376KiB time=00:00:03.79 bitrate=11615.1kbits/s speed=0.0135x elapsed=0:04:41.62    \nframe=   93 fps=0.3 q=25.2 size=    5376KiB time=00:00:03.79 bitrate=11615.1kbits/s speed=0.0134x elapsed=0:04:42.13    \nframe=   93 fps=0.3 q=25.2 size=    5376KiB time=00:00:03.79 bitrate=11615.1kbits/s speed=0.0134x elapsed=0:04:42.66    \nframe=   93 fps=0.3 q=25.2 size=    5376KiB time=00:00:03.79 bitrate=11615.1kbits/s speed=0.0134x elapsed=0:04:43.17    \nframe=   94 fps=0.3 q=25.2 size=    5376KiB time=00:00:03.83 bitrate=11488.8kbits/s speed=0.0135x elapsed=0:04:43.68    \nframe=   94 fps=0.3 q=25.2 size=    5376KiB time=00:00:03.83 bitrate=11488.8kbits/s speed=0.0135x elapsed=0:04:44.20    \nframe=   95 fps=0.3 q=20.2 size=    5632KiB time=00:00:03.87 bitrate=11906.5kbits/s speed=0.0136x elapsed=0:04:44.71    \nframe=   96 fps=0.3 q=22.5 size=    5632KiB time=00:00:03.91 bitrate=11779.8kbits/s speed=0.0137x elapsed=0:04:45.22    \nframe=   96 fps=0.3 q=22.5 size=    5632KiB time=00:00:03.91 bitrate=11779.8kbits/s speed=0.0137x elapsed=0:04:45.75    \nframe=   96 fps=0.3 q=22.5 size=    5632KiB time=00:00:03.91 bitrate=11779.8kbits/s speed=0.0137x elapsed=0:04:46.27    \nframe=   96 fps=0.3 q=22.5 size=    5632KiB time=00:00:03.91 bitrate=11779.8kbits/s speed=0.0137x elapsed=0:04:46.78    \nframe=   97 fps=0.3 q=25.4 size=    5632KiB time=00:00:03.95 bitrate=11655.8kbits/s speed=0.0138x elapsed=0:04:47.30    \nframe=   97 fps=0.3 q=25.4 size=    5632KiB time=00:00:03.95 bitrate=11655.8kbits/s speed=0.0138x elapsed=0:04:47.81    \nframe=   98 fps=0.3 q=25.3 size=    5632KiB time=00:00:04.00 bitrate=11534.4kbits/s speed=0.0139x elapsed=0:04:48.34    \nframe=   99 fps=0.3 q=20.2 size=    5888KiB time=00:00:04.04 bitrate=11934.4kbits/s speed=0.014x elapsed=0:04:48.85    \nframe=   99 fps=0.3 q=20.2 size=    5888KiB time=00:00:04.04 bitrate=11934.4kbits/s speed=0.014x elapsed=0:04:49.37    \nframe=   99 fps=0.3 q=20.2 size=    5888KiB time=00:00:04.04 bitrate=11934.4kbits/s speed=0.0139x elapsed=0:04:49.88    \nframe=  100 fps=0.3 q=22.6 size=    5888KiB time=00:00:04.08 bitrate=11812.6kbits/s speed=0.0141x elapsed=0:04:50.41    \nframe=  100 fps=0.3 q=22.6 size=    5888KiB time=00:00:04.08 bitrate=11812.6kbits/s speed=0.014x elapsed=0:04:50.91    \nframe=  100 fps=0.3 q=22.6 size=    5888KiB time=00:00:04.08 bitrate=11812.6kbits/s speed=0.014x elapsed=0:04:51.44    \nframe=  101 fps=0.3 q=25.4 size=    5888KiB time=00:00:04.12 bitrate=11693.3kbits/s speed=0.0141x elapsed=0:04:51.94    \nframe=  101 fps=0.3 q=25.4 size=    5888KiB time=00:00:04.12 bitrate=11693.3kbits/s speed=0.0141x elapsed=0:04:52.48    \nframe=  102 fps=0.3 q=25.5 size=    5888KiB time=00:00:04.16 bitrate=11576.4kbits/s speed=0.0142x elapsed=0:04:53.00    \nframe=  102 fps=0.3 q=25.5 size=    5888KiB time=00:00:04.16 bitrate=11576.4kbits/s speed=0.0142x elapsed=0:04:53.52    \nframe=  102 fps=0.3 q=25.5 size=    5888KiB time=00:00:04.16 bitrate=11576.4kbits/s speed=0.0142x elapsed=0:04:54.05    \nframe=  103 fps=0.3 q=20.2 size=    5888KiB time=00:00:04.20 bitrate=11461.7kbits/s speed=0.0143x elapsed=0:04:54.56    \nframe=  104 fps=0.4 q=22.4 size=    6144KiB time=00:00:04.25 bitrate=11842.8kbits/s speed=0.0144x elapsed=0:04:55.07    \nframe=  104 fps=0.4 q=22.4 size=    6144KiB time=00:00:04.25 bitrate=11842.8kbits/s speed=0.0144x elapsed=0:04:55.59    \nframe=  104 fps=0.4 q=22.4 size=    6144KiB time=00:00:04.25 bitrate=11842.8kbits/s speed=0.0144x elapsed=0:04:56.10    \nframe=  105 fps=0.4 q=25.5 size=    6144KiB time=00:00:04.29 bitrate=11727.8kbits/s speed=0.0145x elapsed=0:04:56.62    \nframe=  105 fps=0.4 q=25.5 size=    6144KiB time=00:00:04.29 bitrate=11727.8kbits/s speed=0.0144x elapsed=0:04:57.13    \nframe=  105 fps=0.4 q=25.5 size=    6144KiB time=00:00:04.29 bitrate=11727.8kbits/s speed=0.0144x elapsed=0:04:57.65    \nframe=  106 fps=0.4 q=25.4 size=    6144KiB time=00:00:04.33 bitrate=11615.1kbits/s speed=0.0145x elapsed=0:04:58.16    \nframe=  106 fps=0.4 q=25.4 size=    6144KiB time=00:00:04.33 bitrate=11615.1kbits/s speed=0.0145x elapsed=0:04:58.68    \nframe=  107 fps=0.4 q=20.3 size=    6144KiB time=00:00:04.37 bitrate=11504.5kbits/s speed=0.0146x elapsed=0:04:59.20    \nframe=  107 fps=0.4 q=20.3 size=    6144KiB time=00:00:04.37 bitrate=11504.5kbits/s speed=0.0146x elapsed=0:04:59.71    \nframe=  108 fps=0.4 q=22.6 size=    6400KiB time=00:00:04.41 bitrate=11870.8kbits/s speed=0.0147x elapsed=0:05:00.23    \nframe=  108 fps=0.4 q=22.6 size=    6400KiB time=00:00:04.41 bitrate=11870.8kbits/s speed=0.0147x elapsed=0:05:00.77    \nframe=  109 fps=0.4 q=25.4 size=    6400KiB time=00:00:04.45 bitrate=11759.8kbits/s speed=0.0148x elapsed=0:05:01.29    \nframe=  109 fps=0.4 q=25.4 size=    6400KiB time=00:00:04.45 bitrate=11759.8kbits/s speed=0.0148x elapsed=0:05:01.81    \nframe=  109 fps=0.4 q=25.4 size=    6400KiB time=00:00:04.45 bitrate=11759.8kbits/s speed=0.0147x elapsed=0:05:02.32    \nframe=  110 fps=0.4 q=25.4 size=    6400KiB time=00:00:04.50 bitrate=11650.9kbits/s speed=0.0149x elapsed=0:05:02.84    \nframe=  110 fps=0.4 q=25.4 size=    6400KiB time=00:00:04.50 bitrate=11650.9kbits/s speed=0.0148x elapsed=0:05:03.36    \nframe=  111 fps=0.4 q=20.1 size=    6400KiB time=00:00:04.54 bitrate=11544.0kbits/s speed=0.0149x elapsed=0:05:03.89    \nframe=  112 fps=0.4 q=22.6 size=    6656KiB time=00:00:04.58 bitrate=11896.6kbits/s speed=0.0151x elapsed=0:05:04.40    \nframe=  112 fps=0.4 q=22.6 size=    6656KiB time=00:00:04.58 bitrate=11896.6kbits/s speed=0.015x elapsed=0:05:04.92    \nframe=  112 fps=0.4 q=22.6 size=    6656KiB time=00:00:04.58 bitrate=11896.6kbits/s speed=0.015x elapsed=0:05:05.43    \nframe=  113 fps=0.4 q=25.4 size=    6656KiB time=00:00:04.62 bitrate=11789.5kbits/s speed=0.0151x elapsed=0:05:05.96    \nframe=  113 fps=0.4 q=25.4 size=    6656KiB time=00:00:04.62 bitrate=11789.5kbits/s speed=0.0151x elapsed=0:05:06.49    \nframe=  114 fps=0.4 q=25.3 size=    6656KiB time=00:00:04.66 bitrate=11684.2kbits/s speed=0.0152x elapsed=0:05:07.00    \nframe=  114 fps=0.4 q=25.3 size=    6656KiB time=00:00:04.66 bitrate=11684.2kbits/s speed=0.0152x elapsed=0:05:07.52    \nframe=  115 fps=0.4 q=20.3 size=    6656KiB time=00:00:04.70 bitrate=11580.8kbits/s speed=0.0153x elapsed=0:05:08.04    \nframe=  116 fps=0.4 q=22.5 size=    6912KiB time=00:00:04.75 bitrate=11920.7kbits/s speed=0.0154x elapsed=0:05:08.56    \nframe=  116 fps=0.4 q=22.5 size=    6912KiB time=00:00:04.75 bitrate=11920.7kbits/s speed=0.0154x elapsed=0:05:09.07    \nframe=  116 fps=0.4 q=22.5 size=    6912KiB time=00:00:04.75 bitrate=11920.7kbits/s speed=0.0153x elapsed=0:05:09.59    \nframe=  117 fps=0.4 q=25.2 size=    6912KiB time=00:00:04.79 bitrate=11817.1kbits/s speed=0.0155x elapsed=0:05:10.11    \nframe=  117 fps=0.4 q=25.2 size=    6912KiB time=00:00:04.79 bitrate=11817.1kbits/s speed=0.0154x elapsed=0:05:10.62    \nframe=  117 fps=0.4 q=25.2 size=    6912KiB time=00:00:04.79 bitrate=11817.1kbits/s speed=0.0154x elapsed=0:05:11.14    \nframe=  118 fps=0.4 q=25.0 size=    6912KiB time=00:00:04.83 bitrate=11715.2kbits/s speed=0.0155x elapsed=0:05:11.66    \nframe=  119 fps=0.4 q=20.5 size=    6912KiB time=00:00:04.87 bitrate=11615.1kbits/s speed=0.0156x elapsed=0:05:12.16    \nframe=  120 fps=0.4 q=22.8 size=    7168KiB time=00:00:04.91 bitrate=11943.2kbits/s speed=0.0157x elapsed=0:05:12.68    \nframe=  120 fps=0.4 q=22.8 size=    7168KiB time=00:00:04.91 bitrate=11943.2kbits/s speed=0.0157x elapsed=0:05:13.19    \nframe=  120 fps=0.4 q=22.8 size=    7168KiB time=00:00:04.91 bitrate=11943.2kbits/s speed=0.0157x elapsed=0:05:13.72    \nframe=  120 fps=0.4 q=22.8 size=    7168KiB time=00:00:04.91 bitrate=11943.2kbits/s speed=0.0156x elapsed=0:05:14.23    \nframe=  121 fps=0.4 q=25.4 size=    7168KiB time=00:00:04.95 bitrate=11842.8kbits/s speed=0.0158x elapsed=0:05:14.75    \nframe=  121 fps=0.4 q=25.4 size=    7168KiB time=00:00:04.95 bitrate=11842.8kbits/s speed=0.0157x elapsed=0:05:15.26    \nframe=  122 fps=0.4 q=25.5 size=    7168KiB time=00:00:05.00 bitrate=11744.1kbits/s speed=0.0158x elapsed=0:05:15.77    \nframe=  122 fps=0.4 q=25.5 size=    7168KiB time=00:00:05.00 bitrate=11744.1kbits/s speed=0.0158x elapsed=0:05:16.29    \nframe=  123 fps=0.4 q=20.1 size=    7168KiB time=00:00:05.04 bitrate=11647.1kbits/s speed=0.0159x elapsed=0:05:16.80    \nframe=  124 fps=0.4 q=22.7 size=    7424KiB time=00:00:05.08 bitrate=11964.2kbits/s speed=0.016x elapsed=0:05:17.32    \nframe=  124 fps=0.4 q=22.7 size=    7424KiB time=00:00:05.08 bitrate=11964.2kbits/s speed=0.016x elapsed=0:05:17.84    \nframe=  124 fps=0.4 q=22.7 size=    7424KiB time=00:00:05.08 bitrate=11964.2kbits/s speed=0.016x elapsed=0:05:18.36    \nframe=  125 fps=0.4 q=25.3 size=    7424KiB time=00:00:05.12 bitrate=11866.9kbits/s speed=0.0161x elapsed=0:05:18.88    \nframe=  125 fps=0.4 q=25.3 size=    7424KiB time=00:00:05.12 bitrate=11866.9kbits/s speed=0.016x elapsed=0:05:19.40    \nframe=  126 fps=0.4 q=25.2 size=    7424KiB time=00:00:05.16 bitrate=11771.2kbits/s speed=0.0161x elapsed=0:05:19.92    \nframe=  126 fps=0.4 q=25.2 size=    7424KiB time=00:00:05.16 bitrate=11771.2kbits/s speed=0.0161x elapsed=0:05:20.43    \nframe=  126 fps=0.4 q=25.2 size=    7424KiB time=00:00:05.16 bitrate=11771.2kbits/s speed=0.0161x elapsed=0:05:20.95    \nframe=  126 fps=0.4 q=25.2 size=    7424KiB time=00:00:05.16 bitrate=11771.2kbits/s speed=0.0161x elapsed=0:05:21.46    \nframe=  127 fps=0.4 q=20.1 size=    7424KiB time=00:00:05.20 bitrate=11677.0kbits/s speed=0.0162x elapsed=0:05:21.97    \nframe=  128 fps=0.4 q=22.4 size=    7680KiB time=00:00:05.25 bitrate=11983.8kbits/s speed=0.0163x elapsed=0:05:22.49    \nframe=  128 fps=0.4 q=22.4 size=    7680KiB time=00:00:05.25 bitrate=11983.8kbits/s speed=0.0163x elapsed=0:05:23.01    \nframe=  128 fps=0.4 q=22.4 size=    7680KiB time=00:00:05.25 bitrate=11983.8kbits/s speed=0.0162x elapsed=0:05:23.52    \nframe=  129 fps=0.4 q=24.9 size=    7680KiB time=00:00:05.29 bitrate=11889.4kbits/s speed=0.0163x elapsed=0:05:24.04    \nframe=  129 fps=0.4 q=24.9 size=    7680KiB time=00:00:05.29 bitrate=11889.4kbits/s speed=0.0163x elapsed=0:05:24.56    \nframe=  130 fps=0.4 q=25.0 size=    7680KiB time=00:00:05.33 bitrate=11796.5kbits/s speed=0.0164x elapsed=0:05:25.08    \nframe=  130 fps=0.4 q=25.0 size=    7680KiB time=00:00:05.33 bitrate=11796.5kbits/s speed=0.0164x elapsed=0:05:25.60    \nframe=  131 fps=0.4 q=20.2 size=    7680KiB time=00:00:05.37 bitrate=11705.1kbits/s speed=0.0165x elapsed=0:05:26.10    \nframe=  132 fps=0.4 q=22.4 size=    7936KiB time=00:00:05.41 bitrate=12002.2kbits/s speed=0.0166x elapsed=0:05:26.63    \nframe=  132 fps=0.4 q=22.4 size=    7936KiB time=00:00:05.41 bitrate=12002.2kbits/s speed=0.0166x elapsed=0:05:27.15    \nframe=  132 fps=0.4 q=22.4 size=    7936KiB time=00:00:05.41 bitrate=12002.2kbits/s speed=0.0165x elapsed=0:05:27.67    \nframe=  133 fps=0.4 q=24.9 size=    7936KiB time=00:00:05.45 bitrate=11910.6kbits/s speed=0.0166x elapsed=0:05:28.19    \nframe=  133 fps=0.4 q=24.9 size=    7936KiB time=00:00:05.45 bitrate=11910.6kbits/s speed=0.0166x elapsed=0:05:28.70    \nframe=  134 fps=0.4 q=24.8 size=    7936KiB time=00:00:05.50 bitrate=11820.4kbits/s speed=0.0167x elapsed=0:05:29.22    \nframe=  134 fps=0.4 q=24.8 size=    7936KiB time=00:00:05.50 bitrate=11820.4kbits/s speed=0.0167x elapsed=0:05:29.73    \nframe=  135 fps=0.4 q=20.7 size=    7936KiB time=00:00:05.54 bitrate=11731.5kbits/s speed=0.0168x elapsed=0:05:30.24    \nframe=  136 fps=0.4 q=22.2 size=    7936KiB time=00:00:05.58 bitrate=11644.0kbits/s speed=0.0169x elapsed=0:05:30.75    \nframe=  136 fps=0.4 q=22.2 size=    7936KiB time=00:00:05.58 bitrate=11644.0kbits/s speed=0.0169x elapsed=0:05:31.28    \nframe=  136 fps=0.4 q=22.2 size=    7936KiB time=00:00:05.58 bitrate=11644.0kbits/s speed=0.0168x elapsed=0:05:31.80    \nframe=  137 fps=0.4 q=25.0 size=    8192KiB time=00:00:05.62 bitrate=11930.5kbits/s speed=0.0169x elapsed=0:05:32.31    \nframe=  137 fps=0.4 q=25.0 size=    8192KiB time=00:00:05.62 bitrate=11930.5kbits/s speed=0.0169x elapsed=0:05:32.83    \nframe=  138 fps=0.4 q=24.7 size=    8192KiB time=00:00:05.66 bitrate=11842.8kbits/s speed=0.017x elapsed=0:05:33.35    \nframe=  138 fps=0.4 q=24.7 size=    8192KiB time=00:00:05.66 bitrate=11842.8kbits/s speed=0.017x elapsed=0:05:33.87    \nframe=  139 fps=0.4 q=22.1 size=    8192KiB time=00:00:05.70 bitrate=11756.4kbits/s speed=0.0171x elapsed=0:05:34.39    \nframe=  139 fps=0.4 q=22.1 size=    8192KiB time=00:00:05.70 bitrate=11756.4kbits/s speed=0.017x elapsed=0:05:34.91    \nframe=  140 fps=0.4 q=24.7 size=    8192KiB time=00:00:05.75 bitrate=11671.2kbits/s speed=0.0171x elapsed=0:05:35.42    \nframe=  140 fps=0.4 q=24.7 size=    8192KiB time=00:00:05.75 bitrate=11671.2kbits/s speed=0.0171x elapsed=0:05:35.93    \nframe=  140 fps=0.4 q=24.7 size=    8192KiB time=00:00:05.75 bitrate=11671.2kbits/s speed=0.0171x elapsed=0:05:36.45    \nframe=  141 fps=0.4 q=16.8 size=    8192KiB time=00:00:05.79 bitrate=11587.2kbits/s speed=0.0172x elapsed=0:05:36.96    \nframe=  141 fps=0.4 q=16.8 size=    8192KiB time=00:00:05.79 bitrate=11587.2kbits/s speed=0.0172x elapsed=0:05:37.48    \nframe=  142 fps=0.4 q=18.7 size=    8704KiB time=00:00:05.83 bitrate=12223.5kbits/s speed=0.0173x elapsed=0:05:38.00    \nframe=  142 fps=0.4 q=18.7 size=    8704KiB time=00:00:05.83 bitrate=12223.5kbits/s speed=0.0172x elapsed=0:05:38.51    \nframe=  143 fps=0.4 q=22.8 size=    8960KiB time=00:00:05.87 bitrate=12493.7kbits/s speed=0.0173x elapsed=0:05:39.03    \nframe=  144 fps=0.4 q=25.0 size=    8960KiB time=00:00:05.91 bitrate=12405.7kbits/s speed=0.0174x elapsed=0:05:39.55    \nframe=  145 fps=0.4 q=25.1 size=    8960KiB time=00:00:05.95 bitrate=12319.0kbits/s speed=0.0175x elapsed=0:05:40.08    \nframe=  146 fps=0.4 q=24.9 size=    8960KiB time=00:00:06.00 bitrate=12233.4kbits/s speed=0.0176x elapsed=0:05:40.60    \nframe=  146 fps=0.4 q=24.9 size=    8960KiB time=00:00:06.00 bitrate=12233.4kbits/s speed=0.0176x elapsed=0:05:41.14    \nframe=  147 fps=0.4 q=18.9 size=    8960KiB time=00:00:06.04 bitrate=12149.1kbits/s speed=0.0177x elapsed=0:05:41.66    \nframe=  148 fps=0.4 q=22.0 size=    9216KiB time=00:00:06.08 bitrate=12410.6kbits/s speed=0.0178x elapsed=0:05:42.17    \nframe=  149 fps=0.4 q=25.1 size=    9216KiB time=00:00:06.12 bitrate=12326.2kbits/s speed=0.0179x elapsed=0:05:42.68    \nframe=  150 fps=0.4 q=25.3 size=    9216KiB time=00:00:06.16 bitrate=12242.9kbits/s speed=0.018x elapsed=0:05:43.21    \nframe=  150 fps=0.4 q=25.3 size=    9216KiB time=00:00:06.16 bitrate=12242.9kbits/s speed=0.0179x elapsed=0:05:43.73    \nframe=  151 fps=0.4 q=18.8 size=    9216KiB time=00:00:06.20 bitrate=12160.7kbits/s speed=0.018x elapsed=0:05:44.25    \nframe=  151 fps=0.4 q=18.8 size=    9216KiB time=00:00:06.20 bitrate=12160.7kbits/s speed=0.018x elapsed=0:05:44.78    \nframe=  152 fps=0.4 q=22.9 size=    9472KiB time=00:00:06.25 bitrate=12415.2kbits/s speed=0.0181x elapsed=0:05:45.29    \nframe=  153 fps=0.4 q=25.2 size=    9472KiB time=00:00:06.29 bitrate=12333.0kbits/s speed=0.0182x elapsed=0:05:45.80    \nframe=  154 fps=0.4 q=25.1 size=    9472KiB time=00:00:06.33 bitrate=12251.8kbits/s speed=0.0183x elapsed=0:05:46.32    \nframe=  154 fps=0.4 q=25.1 size=    9472KiB time=00:00:06.33 bitrate=12251.8kbits/s speed=0.0183x elapsed=0:05:46.84    \nframe=  154 fps=0.4 q=25.1 size=    9472KiB time=00:00:06.33 bitrate=12251.8kbits/s speed=0.0182x elapsed=0:05:47.35    \nframe=  155 fps=0.4 q=18.8 size=    9472KiB time=00:00:06.37 bitrate=12171.8kbits/s speed=0.0183x elapsed=0:05:47.87    \nframe=  156 fps=0.4 q=22.3 size=    9728KiB time=00:00:06.41 bitrate=12419.6kbits/s speed=0.0184x elapsed=0:05:48.39    \nframe=  156 fps=0.4 q=22.3 size=    9728KiB time=00:00:06.41 bitrate=12419.6kbits/s speed=0.0184x elapsed=0:05:48.90    \nframe=  157 fps=0.4 q=25.2 size=    9728KiB time=00:00:06.45 bitrate=12339.4kbits/s speed=0.0185x elapsed=0:05:49.42    \nframe=  158 fps=0.5 q=25.2 size=    9728KiB time=00:00:06.50 bitrate=12260.3kbits/s speed=0.0186x elapsed=0:05:49.93    \nframe=  158 fps=0.5 q=25.2 size=    9728KiB time=00:00:06.50 bitrate=12260.3kbits/s speed=0.0185x elapsed=0:05:50.45    \nframe=  159 fps=0.5 q=25.5 size=    9728KiB time=00:00:06.54 bitrate=12182.2kbits/s speed=0.0186x elapsed=0:05:50.97    \nframe=  159 fps=0.5 q=25.5 size=    9728KiB time=00:00:06.54 bitrate=12182.2kbits/s speed=0.0186x elapsed=0:05:51.48    \nframe=  160 fps=0.5 q=18.8 size=    9728KiB time=00:00:06.58 bitrate=12105.1kbits/s speed=0.0187x elapsed=0:05:52.00    \nframe=  160 fps=0.5 q=18.8 size=    9728KiB time=00:00:06.58 bitrate=12105.1kbits/s speed=0.0187x elapsed=0:05:52.53    \nframe=  161 fps=0.5 q=19.8 size=    9984KiB time=00:00:06.62 bitrate=12345.6kbits/s speed=0.0188x elapsed=0:05:53.04    \nframe=  162 fps=0.5 q=25.3 size=    9984KiB time=00:00:06.66 bitrate=12268.4kbits/s speed=0.0189x elapsed=0:05:53.56    \nframe=  163 fps=0.5 q=25.6 size=    9984KiB time=00:00:06.70 bitrate=12192.2kbits/s speed=0.0189x elapsed=0:05:54.07    \nframe=  163 fps=0.5 q=25.6 size=    9984KiB time=00:00:06.70 bitrate=12192.2kbits/s speed=0.0189x elapsed=0:05:54.59    \nframe=  164 fps=0.5 q=25.1 size=   10240KiB time=00:00:06.75 bitrate=12427.6kbits/s speed=0.019x elapsed=0:05:55.11    \nframe=  164 fps=0.5 q=25.1 size=   10240KiB time=00:00:06.75 bitrate=12427.6kbits/s speed=0.019x elapsed=0:05:55.63    \nframe=  165 fps=0.5 q=18.8 size=   10240KiB time=00:00:06.79 bitrate=12351.4kbits/s speed=0.0191x elapsed=0:05:56.15    \nframe=  166 fps=0.5 q=20.2 size=   10240KiB time=00:00:06.83 bitrate=12276.1kbits/s speed=0.0192x elapsed=0:05:56.67    \nframe=  166 fps=0.5 q=20.2 size=   10240KiB time=00:00:06.83 bitrate=12276.1kbits/s speed=0.0191x elapsed=0:05:57.18    \nframe=  167 fps=0.5 q=25.6 size=   10496KiB time=00:00:06.87 bitrate=12506.7kbits/s speed=0.0192x elapsed=0:05:57.70    \nframe=  168 fps=0.5 q=25.5 size=   10496KiB time=00:00:06.91 bitrate=12431.4kbits/s speed=0.0193x elapsed=0:05:58.21    \nframe=  169 fps=0.5 q=25.5 size=   10496KiB time=00:00:06.95 bitrate=12356.9kbits/s speed=0.0194x elapsed=0:05:58.73    \nframe=  169 fps=0.5 q=25.5 size=   10496KiB time=00:00:06.95 bitrate=12356.9kbits/s speed=0.0194x elapsed=0:05:59.25    \nframe=  170 fps=0.5 q=18.9 size=   10496KiB time=00:00:07.00 bitrate=12283.4kbits/s speed=0.0195x elapsed=0:05:59.76    \nframe=  172 fps=0.5 q=26.0 size=   10752KiB time=00:00:07.08 bitrate=12434.9kbits/s speed=0.0197x elapsed=0:06:00.28    \nframe=  173 fps=0.5 q=25.4 size=   10752KiB time=00:00:07.12 bitrate=12362.2kbits/s speed=0.0197x elapsed=0:06:00.80    \nframe=  173 fps=0.5 q=25.4 size=   10752KiB time=00:00:07.12 bitrate=12362.2kbits/s speed=0.0197x elapsed=0:06:01.31    \nframe=  174 fps=0.5 q=25.2 size=   10752KiB time=00:00:07.16 bitrate=12290.3kbits/s speed=0.0198x elapsed=0:06:01.82    \nframe=  175 fps=0.5 q=19.1 size=   10752KiB time=00:00:07.20 bitrate=12219.3kbits/s speed=0.0199x elapsed=0:06:02.33    \nframe=  177 fps=0.5 q=25.7 size=   11008KiB time=00:00:07.29 bitrate=12367.3kbits/s speed=0.0201x elapsed=0:06:02.85    \nframe=  178 fps=0.5 q=26.4 size=   11008KiB time=00:00:07.33 bitrate=12297.0kbits/s speed=0.0202x elapsed=0:06:03.37    \nframe=  178 fps=0.5 q=26.4 size=   11008KiB time=00:00:07.33 bitrate=12297.0kbits/s speed=0.0202x elapsed=0:06:03.89    \nframe=  179 fps=0.5 q=25.9 size=   11008KiB time=00:00:07.37 bitrate=12227.5kbits/s speed=0.0202x elapsed=0:06:04.41    \nframe=  180 fps=0.5 q=19.0 size=   11008KiB time=00:00:07.41 bitrate=12158.8kbits/s speed=0.0203x elapsed=0:06:04.92    \nframe=  181 fps=0.5 q=22.8 size=   11264KiB time=00:00:07.45 bitrate=12372.1kbits/s speed=0.0204x elapsed=0:06:05.45    \nframe=  182 fps=0.5 q=25.3 size=   11264KiB time=00:00:07.50 bitrate=12303.3kbits/s speed=0.0205x elapsed=0:06:05.97    \nframe=  183 fps=0.5 q=25.2 size=   11264KiB time=00:00:07.54 bitrate=12235.4kbits/s speed=0.0206x elapsed=0:06:06.49    \nframe=  184 fps=0.5 q=19.0 size=   11264KiB time=00:00:07.58 bitrate=12168.1kbits/s speed=0.0207x elapsed=0:06:07.01    \nframe=  185 fps=0.5 q=22.8 size=   11520KiB time=00:00:07.62 bitrate=12376.7kbits/s speed=0.0207x elapsed=0:06:07.52    \nframe=  186 fps=0.5 q=24.9 size=   11520KiB time=00:00:07.66 bitrate=12309.4kbits/s speed=0.0208x elapsed=0:06:08.04    \nframe=  187 fps=0.5 q=25.2 size=   11520KiB time=00:00:07.70 bitrate=12242.9kbits/s speed=0.0209x elapsed=0:06:08.56    \nframe=  188 fps=0.5 q=19.1 size=   11520KiB time=00:00:07.75 bitrate=12177.1kbits/s speed=0.021x elapsed=0:06:09.08    \nframe=  189 fps=0.5 q=23.9 size=   11520KiB time=00:00:07.79 bitrate=12111.9kbits/s speed=0.0211x elapsed=0:06:09.60    \nframe=  189 fps=0.5 q=23.9 size=   11520KiB time=00:00:07.79 bitrate=12111.9kbits/s speed=0.0211x elapsed=0:06:10.10    \nframe=  191 fps=0.5 q=25.2 size=   11776KiB time=00:00:07.87 bitrate=12250.1kbits/s speed=0.0212x elapsed=0:06:10.62    \nframe=  191 fps=0.5 q=25.2 size=   11776KiB time=00:00:07.87 bitrate=12250.1kbits/s speed=0.0212x elapsed=0:06:11.13    \nframe=  192 fps=0.5 q=25.3 size=   11776KiB time=00:00:07.91 bitrate=12185.6kbits/s speed=0.0213x elapsed=0:06:11.65    \nframe=  193 fps=0.5 q=18.8 size=   11776KiB time=00:00:07.95 bitrate=12121.8kbits/s speed=0.0214x elapsed=0:06:12.16    \nframe=  194 fps=0.5 q=19.4 size=   11776KiB time=00:00:08.00 bitrate=12058.7kbits/s speed=0.0215x elapsed=0:06:12.68    \nframe=  195 fps=0.5 q=25.4 size=   12032KiB time=00:00:08.04 bitrate=12257.0kbits/s speed=0.0215x elapsed=0:06:13.20    \nframe=  196 fps=0.5 q=25.0 size=   12032KiB time=00:00:08.08 bitrate=12193.8kbits/s speed=0.0216x elapsed=0:06:13.71    \nframe=  197 fps=0.5 q=24.8 size=   12032KiB time=00:00:08.12 bitrate=12131.3kbits/s speed=0.0217x elapsed=0:06:14.23    \nframe=  198 fps=0.5 q=19.1 size=   12032KiB time=00:00:08.16 bitrate=12069.4kbits/s speed=0.0218x elapsed=0:06:14.75    \nframe=  199 fps=0.5 q=19.9 size=   12288KiB time=00:00:08.20 bitrate=12263.6kbits/s speed=0.0219x elapsed=0:06:15.26    \nframe=  200 fps=0.5 q=25.0 size=   12288KiB time=00:00:08.25 bitrate=12201.7kbits/s speed=0.022x elapsed=0:06:15.77    \nframe=  201 fps=0.5 q=25.2 size=   12288KiB time=00:00:08.29 bitrate=12140.3kbits/s speed=0.022x elapsed=0:06:16.30    \nframe=  202 fps=0.5 q=25.2 size=   12288KiB time=00:00:08.33 bitrate=12079.6kbits/s speed=0.0221x elapsed=0:06:16.81    \nframe=  202 fps=0.5 q=25.2 size=   12288KiB time=00:00:08.33 bitrate=12079.6kbits/s speed=0.0221x elapsed=0:06:17.33    \nframe=  204 fps=0.5 q=24.6 size=   12544KiB time=00:00:08.41 bitrate=12209.2kbits/s speed=0.0223x elapsed=0:06:17.85    \nframe=  206 fps=0.5 q=26.2 size=   12544KiB time=00:00:08.50 bitrate=12089.5kbits/s speed=0.0225x elapsed=0:06:18.37    \nframe=  207 fps=0.5 q=25.7 size=   12544KiB time=00:00:08.54 bitrate=12030.5kbits/s speed=0.0225x elapsed=0:06:18.88    \nframe=  207 fps=0.5 q=25.7 size=   12544KiB time=00:00:08.54 bitrate=12030.5kbits/s speed=0.0225x elapsed=0:06:19.40    \nframe=  208 fps=0.5 q=18.9 size=   12544KiB time=00:00:08.58 bitrate=11972.1kbits/s speed=0.0226x elapsed=0:06:19.91    \nframe=  209 fps=0.5 q=23.6 size=   12800KiB time=00:00:08.62 bitrate=12157.4kbits/s speed=0.0227x elapsed=0:06:20.43    \nframe=  211 fps=0.6 q=24.6 size=   12800KiB time=00:00:08.70 bitrate=12041.1kbits/s speed=0.0229x elapsed=0:06:20.95    \nframe=  212 fps=0.6 q=24.7 size=   12800KiB time=00:00:08.75 bitrate=11983.8kbits/s speed=0.0229x elapsed=0:06:21.47    \nframe=  212 fps=0.6 q=24.7 size=   12800KiB time=00:00:08.75 bitrate=11983.8kbits/s speed=0.0229x elapsed=0:06:21.98    \nframe=  214 fps=0.6 q=22.8 size=   13056KiB time=00:00:08.83 bitrate=12108.1kbits/s speed=0.0231x elapsed=0:06:22.49    \nframe=  214 fps=0.6 q=22.8 size=   13056KiB time=00:00:08.83 bitrate=12108.1kbits/s speed=0.0231x elapsed=0:06:23.01    \nframe=  216 fps=0.6 q=24.3 size=   13056KiB time=00:00:08.91 bitrate=11995.0kbits/s speed=0.0232x elapsed=0:06:23.53    \nframe=  217 fps=0.6 q=24.3 size=   13056KiB time=00:00:08.95 bitrate=11939.2kbits/s speed=0.0233x elapsed=0:06:24.04    \nframe=  217 fps=0.6 q=24.3 size=   13056KiB time=00:00:08.95 bitrate=11939.2kbits/s speed=0.0233x elapsed=0:06:24.55    \nframe=  218 fps=0.6 q=18.6 size=   13056KiB time=00:00:09.00 bitrate=11883.9kbits/s speed=0.0234x elapsed=0:06:25.07    \nframe=  219 fps=0.6 q=22.9 size=   13312KiB time=00:00:09.04 bitrate=12061.1kbits/s speed=0.0234x elapsed=0:06:25.59    \nframe=  221 fps=0.6 q=24.3 size=   13312KiB time=00:00:09.12 bitrate=11950.9kbits/s speed=0.0236x elapsed=0:06:26.10    \nframe=  221 fps=0.6 q=24.3 size=   13312KiB time=00:00:09.12 bitrate=11950.9kbits/s speed=0.0236x elapsed=0:06:26.63    \nframe=  222 fps=0.6 q=24.0 size=   13312KiB time=00:00:09.16 bitrate=11896.6kbits/s speed=0.0237x elapsed=0:06:27.15    \nframe=  223 fps=0.6 q=18.8 size=   13312KiB time=00:00:09.20 bitrate=11842.8kbits/s speed=0.0238x elapsed=0:06:27.67    \nframe=  224 fps=0.6 q=21.9 size=   13568KiB time=00:00:09.25 bitrate=12016.2kbits/s speed=0.0238x elapsed=0:06:28.21    \nframe=  225 fps=0.6 q=24.4 size=   13568KiB time=00:00:09.29 bitrate=11962.3kbits/s speed=0.0239x elapsed=0:06:28.71    \nframe=  226 fps=0.6 q=24.1 size=   13568KiB time=00:00:09.33 bitrate=11908.9kbits/s speed=0.024x elapsed=0:06:29.23    \nframe=  227 fps=0.6 q=19.0 size=   13568KiB time=00:00:09.37 bitrate=11855.9kbits/s speed=0.0241x elapsed=0:06:29.75    \nframe=  228 fps=0.6 q=21.3 size=   13824KiB time=00:00:09.41 bitrate=12026.2kbits/s speed=0.0241x elapsed=0:06:30.27    \nframe=  229 fps=0.6 q=24.7 size=   13824KiB time=00:00:09.45 bitrate=11973.2kbits/s speed=0.0242x elapsed=0:06:30.78    \nframe=  230 fps=0.6 q=24.1 size=   13824KiB time=00:00:09.50 bitrate=11920.7kbits/s speed=0.0243x elapsed=0:06:31.28    \nframe=  231 fps=0.6 q=24.2 size=   13824KiB time=00:00:09.54 bitrate=11868.6kbits/s speed=0.0244x elapsed=0:06:31.81    \nframe=  232 fps=0.6 q=19.5 size=   13824KiB time=00:00:09.58 bitrate=11817.0kbits/s speed=0.0244x elapsed=0:06:32.32    \nframe=  233 fps=0.6 q=21.0 size=   14080KiB time=00:00:09.62 bitrate=11983.8kbits/s speed=0.0245x elapsed=0:06:32.84    \nframe=  234 fps=0.6 q=24.2 size=   14080KiB time=00:00:09.66 bitrate=11932.1kbits/s speed=0.0246x elapsed=0:06:33.35    \nframe=  235 fps=0.6 q=23.3 size=   14080KiB time=00:00:09.70 bitrate=11880.9kbits/s speed=0.0246x elapsed=0:06:33.88    \nframe=  236 fps=0.6 q=23.5 size=   14080KiB time=00:00:09.75 bitrate=11830.1kbits/s speed=0.0247x elapsed=0:06:34.39    \nframe=  236 fps=0.6 q=23.5 size=   14080KiB time=00:00:09.75 bitrate=11830.1kbits/s speed=0.0247x elapsed=0:06:34.90    \nframe=  237 fps=0.6 q=20.7 size=   14080KiB time=00:00:09.79 bitrate=11779.8kbits/s speed=0.0248x elapsed=0:06:35.42    \nframe=  239 fps=0.6 q=23.3 size=   14336KiB time=00:00:09.87 bitrate=11892.7kbits/s speed=0.0249x elapsed=0:06:35.95    \n[mp4 @ 000001ba5c329dc0] Starting second pass: moving the moov atom to the beginning of the file\n[out#0/mp4 @ 000001ba5c329c00] video:14508KiB audio:0KiB subtitle:0KiB other streams:0KiB global headers:2KiB muxing overhead: 0.043920%\nframe=  240 fps=0.6 q=22.3 Lsize=   14515KiB time=00:00:09.91 bitrate=11990.3kbits/s speed=0.025x elapsed=0:06:36.18    \nx265 [info]: frame I:      2, Avg QP:17.81  kb/s: 55363.49\nx265 [info]: frame P:     55, Avg QP:20.00  kb/s: 29719.23\nx265 [info]: frame B:    183, Avg QP:24.44  kb/s: 6048.98 \nx265 [info]: Weighted P-Frames: Y:0.0% UV:0.0%\n\nencoded 240 frames in 392.50s (0.61 fps), 11884.37 kb/s, Avg QP:23.36\n",
  "seconds": 397.3826153278351,
  "probe_out": {}
}